<?xml version="1.0" encoding="UTF-8" standalone="no"?>
<!-- Created with Inkscape (http://www.inkscape.org/) -->

<svg
   version="1.1"
   id="svg1"
   width="651"
   height="650"
   viewBox="0 0 651 650"
   sodipodi:docname="disconect.svg"
   inkscape:version="1.4.1 (93de688d07, 2025-03-30)"
   xml:space="preserve"
   inkscape:export-filename="disconect.png"
   inkscape:export-xdpi="96"
   inkscape:export-ydpi="96"
   xmlns:inkscape="http://www.inkscape.org/namespaces/inkscape"
   xmlns:sodipodi="http://sodipodi.sourceforge.net/DTD/sodipodi-0.dtd"
   xmlns="http://www.w3.org/2000/svg"
   xmlns:svg="http://www.w3.org/2000/svg"><defs
     id="defs1" /><sodipodi:namedview
     id="namedview1"
     pagecolor="#ffffff"
     bordercolor="#000000"
     borderopacity="0.25"
     inkscape:showpageshadow="2"
     inkscape:pageopacity="0.0"
     inkscape:pagecheckerboard="0"
     inkscape:deskcolor="#d1d1d1"
     inkscape:zoom="0.88437358"
     inkscape:cx="236.32547"
     inkscape:cy="386.7144"
     inkscape:window-width="1865"
     inkscape:window-height="1012"
     inkscape:window-x="0"
     inkscape:window-y="0"
     inkscape:window-maximized="1"
     inkscape:current-layer="g1"
     showguides="true"><sodipodi:guide
       position="259.10377,210.11855"
       orientation="0,-1"
       id="guide1"
       inkscape:locked="false" /><sodipodi:guide
       position="258.8255,211.45248"
       orientation="1,0"
       id="guide2"
       inkscape:locked="false" /><sodipodi:guide
       position="403.56514,279.95965"
       orientation="0,-1"
       id="guide3"
       inkscape:locked="false" /><sodipodi:guide
       position="407.93793,287.84394"
       orientation="1,0"
       id="guide4"
       inkscape:locked="false" /></sodipodi:namedview><g
     inkscape:groupmode="layer"
     inkscape:label="Image"
     id="g1"><rect
       style="fill:#000000;fill-opacity:1;stroke:none;stroke-width:0.498658"
       id="rect9"
       width="651.01434"
       height="650.0105"
       x="-0.0055057993"
       y="-0.0046703629"
       ry="0"
       inkscape:export-filename="disconect.png"
       inkscape:export-xdpi="96"
       inkscape:export-ydpi="96" /><g
       id="g2"
       transform="matrix(1.4622904,0,0,1.4564386,489.798,-49.859392)"
       style="display:inline;opacity:0.42443724"><path
         style="fill:#d7d7d7;stroke-width:0.463911"
         d="m -257.82271,426.75578 c -0.0577,-29.51216 -0.0202,-54.49345 0.0834,-55.514 l 0.18818,-1.85553 25.03874,-0.30926 c 13.7713,-0.17009 31.30194,-0.17009 38.95699,0 l 13.9183,0.30926 v 55.35672 55.35671 l -39.04043,0.15729 -39.04039,0.15729 z m 307.5474,-58.09113 c -0.12759,-0.22678 -0.23197,-8.57668 -0.23197,-18.55533 v -18.14297 h 30.21427 c 16.61788,0 30.27955,0.11565 30.35928,0.257 0.0797,0.14135 0.10128,8.49124 0.0479,18.55532 l -0.0971,18.29832 H 79.98692 c -16.51662,0 -30.1346,-0.18556 -30.26216,-0.41234 z m -257.19836,-36.55314 c -0.41178,-0.53774 -0.4986,-296.411805 -0.087,-296.411812 0.14354,-6e-6 0.26096,66.365232 0.26096,147.478302 0,117.30932 0.089,147.57843 0.43494,147.9677 0.23923,0.26914 1.21786,0.66388 2.17472,0.87718 l 1.73979,0.38781 -2.08774,0.0776 c -1.14825,0.0427 -2.2443,-0.12687 -2.43568,-0.3768 z m 62.55192,0.0448 c 0.33856,-0.15682 0.80829,-0.14651 1.04387,0.023 0.23559,0.16942 -0.0415,0.29773 -0.61554,0.28512 -0.57412,-0.0126 -0.76688,-0.15122 -0.42833,-0.30804 z m 97.59536,-0.0352 -31.57711,-0.16121 0.0522,-2.0069 c 0.0487,-1.8709 0.0621,-1.89164 0.1971,-0.30598 l 0.14494,1.7009 31.20607,0.0435 c 17.16332,0.0238 31.5192,0.28266 31.90196,0.57503 0.38275,0.29236 0.46103,0.48303 0.17398,0.42372 -0.28708,-0.0593 -14.73165,-0.18039 -32.09908,-0.26905 z M -334.65205,183.8992 c 0,-132.171775 0.057,-148.106032 0.53104,-148.429371 0.81672,-0.557093 61.52025,-0.444406 62.01214,0.115117 0.34271,0.389841 0.45136,31.287349 0.52193,148.436874 l 0.0891,147.94457 -31.57712,-10e-6 -31.57712,-1e-5 z m 255.50488,72.60885 c 0,-1.871 0.0653,-2.6364 0.14495,-1.7009 0.0797,0.93549 0.0797,2.46631 0,3.4018 -0.0797,0.93551 -0.14495,0.1701 -0.14495,-1.7009 z m -0.0494,-8.65916 c 0,-0.85045 0.079,-1.19835 0.1755,-0.77314 0.0965,0.42523 0.0965,1.12106 0,1.54628 -0.0965,0.42523 -0.1755,0.0773 -0.1755,-0.77314 z m 0.0129,-6.49435 c 0.007,-1.02055 0.0851,-1.36316 0.1733,-0.76137 0.0882,0.6018 0.0824,1.43678 -0.0129,1.85553 -0.0953,0.41876 -0.16749,-0.0736 -0.16039,-1.09416 z m 0,-6.80363 c 0.007,-1.02053 0.0851,-1.36316 0.1733,-0.76137 0.0882,0.60181 0.0824,1.43678 -0.0129,1.85553 -0.0953,0.41876 -0.16749,-0.0736 -0.16039,-1.09416 z m -0.0129,-6.49436 c 0,-0.85045 0.079,-1.19837 0.1755,-0.77314 0.0965,0.42522 0.0965,1.12105 0,1.54628 -0.0965,0.42522 -0.1755,0.0773 -0.1755,-0.77314 z m 0.0129,-6.49436 c 0.007,-1.02054 0.0851,-1.36316 0.1733,-0.76138 0.0882,0.6018 0.0824,1.43679 -0.0129,1.85554 -0.0953,0.41875 -0.16749,-0.0736 -0.16039,-1.09416 z m 0,-6.80363 c 0.007,-1.02054 0.0851,-1.36315 0.1733,-0.76136 0.0882,0.60179 0.0824,1.43678 -0.0129,1.85553 -0.0953,0.41875 -0.16749,-0.0736 -0.16039,-1.09417 z m -0.0129,-6.49435 c 0,-0.85046 0.079,-1.19837 0.1755,-0.77315 0.0965,0.42523 0.0965,1.12106 0,1.54628 -0.0965,0.42523 -0.1755,0.0773 -0.1755,-0.77313 z m 0.0129,-6.49437 c 0.007,-1.02054 0.0851,-1.36316 0.1733,-0.76136 0.0882,0.60178 0.0824,1.43677 -0.0129,1.85552 -0.0953,0.41875 -0.16749,-0.0736 -0.16039,-1.09416 z m 0,-6.80361 c 0.007,-1.02055 0.0851,-1.36317 0.1733,-0.76137 0.0882,0.60178 0.0824,1.43678 -0.0129,1.85553 -0.0953,0.41874 -0.16749,-0.0736 -0.16039,-1.09416 z m -0.0129,-6.49437 c 0,-0.85045 0.079,-1.19836 0.1755,-0.77314 0.0965,0.42523 0.0965,1.12105 0,1.54628 -0.0965,0.42522 -0.1755,0.0773 -0.1755,-0.77314 z m 0.0129,-6.49437 c 0.007,-1.02054 0.0851,-1.36316 0.1733,-0.76136 0.0882,0.60179 0.0824,1.43678 -0.0129,1.85553 -0.0953,0.41875 -0.16749,-0.0736 -0.16039,-1.09417 z m 0,-6.80361 c 0.007,-1.02055 0.0851,-1.36316 0.1733,-0.76137 0.0882,0.6018 0.0824,1.43678 -0.0129,1.85553 -0.0953,0.41875 -0.16749,-0.0736 -0.16039,-1.09416 z m -0.0129,-6.49437 c 0,-0.85045 0.079,-1.19836 0.1755,-0.77313 0.0965,0.42522 0.0965,1.12105 0,1.54627 -0.0965,0.42523 -0.1755,0.0773 -0.1755,-0.77314 z m 0.0129,-6.49436 c 0.007,-1.02054 0.0851,-1.36316 0.1733,-0.76137 0.0882,0.60179 0.0824,1.43679 -0.0129,1.85554 -0.0953,0.41875 -0.16749,-0.0736 -0.16039,-1.09417 z m 0,-6.80362 c 0.007,-1.02054 0.0851,-1.36316 0.1733,-0.76137 0.0882,0.6018 0.0824,1.43679 -0.0129,1.85554 -0.0953,0.41875 -0.16749,-0.0736 -0.16039,-1.09417 z m 0.36783,-112.568951 c 0.004,-1.360724 0.0752,-1.844554 0.15836,-1.075182 0.0832,0.769371 0.0801,1.88269 -0.007,2.474043 -0.0871,0.591352 -0.15521,-0.03816 -0.15134,-1.398861 z"
         id="path9-3"
         inkscape:export-filename="not_img.png"
         inkscape:export-xdpi="96"
         inkscape:export-ydpi="96" /><path
         style="fill:#fb26fa;stroke-width:0.463911"
         d="m -179.69098,369.54088 c -0.0886,-0.25513 -6.26349,-0.46389 -13.72189,-0.46389 -12.58773,0 -13.57866,-0.0777 -13.81077,-1.08238 -0.32557,-1.40941 -0.25249,-34.68369 0.0775,-35.27064 0.36018,-0.64072 60.6297,-0.93017 62.30478,-0.29922 l 1.39181,0.52427 0.0925,17.52496 c 0.0648,12.28091 -0.0245,17.77551 -0.29842,18.36224 -0.31745,0.67991 -3.72515,0.86839 -18.13261,1.00291 -9.75793,0.0911 -17.81422,-0.0431 -17.90287,-0.29825 z m 132.57783,-38.03836 -31.36391,-0.16123 -0.2195,-2.6254 c -0.12076,-1.44397 -0.17753,-68.0329 -0.12625,-147.97543 l 0.0933,-145.350023 h 31.83811 31.83808 l 0.0877,148.287953 c 0.0701,118.49501 1.8e-4,148.25755 -0.34795,148.13665 -0.23962,-0.0832 -14.54944,-0.22385 -31.79957,-0.31252 z"
         id="path8" /><path
         style="fill:#fbec03;stroke-width:0.463911"
         d="m -271.46058,330.98799 c -0.11617,-0.53809 -0.21121,-67.33724 -0.21121,-148.44259 V 35.081181 h 31.80084 c 28.67724,0 31.82163,0.0961 32.01209,0.978354 0.27514,1.274603 0.26713,292.689485 -0.008,294.515165 l -0.20984,1.39166 h -31.58633 c -28.48161,0 -31.60709,-0.0962 -31.79753,-0.97837 z"
         id="path7" /><path
         style="fill:#02e1f8;stroke-width:0.463911"
         d="m -78.66969,368.66788 c -0.12859,-0.22856 -0.23381,-8.5799 -0.23381,-18.55856 v -18.14296 l 31.22917,0.008 c 17.17604,0.005 31.5838,0.17737 32.01725,0.38381 l 0.78811,0.37537 -0.0922,18.01689 -0.0922,18.01691 -31.6913,0.15787 c -17.43018,0.0868 -31.79648,-0.0291 -31.92506,-0.25771 z m -128.04375,-37.47467 c -0.55311,-0.724 -0.58496,-10.14625 -0.50146,-148.28796 l 0.0892,-147.514813 h 31.83808 31.83809 l 0.0877,148.287963 0.0877,148.28796 h -31.42433 c -24.59251,0 -31.55276,-0.16809 -32.01496,-0.77315 z"
         id="path6" /><path
         style="fill:#f91603;stroke-width:0.463911"
         d="m -14.96492,183.52699 -0.0884,-148.445821 32.09977,6e-6 32.09974,6e-6 -0.0877,148.287949 -0.0877,148.28797 -31.92363,0.15786 -31.92364,0.15787 z"
         id="path5" /><path
         style="fill:#020bf6;stroke-width:0.463911"
         d="M -334.39108,369.02746 C -334.94766,368.45122 -335,366.93409 -335,351.37805 c 0,-10.54881 0.13694,-17.4738 0.3602,-18.21533 0.35199,-1.16911 1.06875,-1.19636 31.46881,-1.19636 h 31.1086 l 0.23728,2.81261 c 0.30834,3.65481 0.0367,33.1341 -0.31456,34.1434 -0.34909,1.00294 -61.28483,1.10581 -62.25141,0.10509 z M 49.79887,328.40991 C 49.65056,315.79455 49.60083,38.152329 49.74667,36.782086 l 0.18102,-1.700905 h 29.81122 c 22.72258,0 29.91051,0.176486 30.22879,0.742213 0.55599,0.988288 0.61278,293.101786 0.0574,294.946596 -0.35183,1.16856 -1.0552,1.19637 -30.2723,1.19637 H 49.84074 Z"
         id="path4" /><path
         style="fill:#01d402;stroke-width:0.463911"
         d="m -142.83918,331.45807 c -0.3437,-0.38793 -0.45185,-31.15078 -0.52197,-148.43313 l -0.0884,-147.943771 31.88785,6e-6 c 28.75657,6e-6 31.9086,0.09608 32.09906,0.97836 0.11616,0.538093 0.2112,67.168315 0.2112,148.067155 0,133.55518 -0.0507,147.12335 -0.5504,147.46423 -0.82621,0.56358 -62.53559,0.43352 -63.03733,-0.13286 z M -207.71291,35.277181 c 0.25121,-0.178669 0.55131,-0.156699 0.66692,0.0488 0.11564,0.205531 -0.0899,0.35171 -0.45669,0.324854 -0.40533,-0.02969 -0.48781,-0.176239 -0.21023,-0.37368 z"
         id="path3" /><path
         style="fill:#151630;stroke-width:0.463911"
         d="m -335,424.41196 c 0,-55.17093 0.01,-55.98755 0.67304,-55.35672 0.44933,0.42745 10.86188,0.64027 31.32707,0.64027 28.86709,0 30.66861,-0.0631 30.90407,-1.08239 0.13753,-0.59532 0.25005,-9.08417 0.25005,-18.86411 v -17.78172 l 32.22574,-4.7e-4 32.22569,-4.6e-4 -0.0897,18.40069 -0.0897,18.40069 -24.81388,0.15879 c -14.14665,0.0905 -24.9488,0.39861 -25.12773,0.71666 -0.18263,0.32464 -0.29084,23.59716 -0.25885,55.66182 l 0.055,55.10393 H -296.35958 -335 Z m 155.53688,0.79496 0.17398,-55.20215 17.54009,-0.16042 c 12.55076,-0.11478 17.67675,-0.362 18.02054,-0.86912 0.39048,-0.57608 0.47231,-4.10969 0.43719,-18.87806 l -0.0433,-18.16933 31.47734,0.0287 c 17.31254,0.0158 31.73126,-0.14452 32.04157,-0.35618 0.50997,-0.34787 0.57228,-3.84005 0.64834,-36.34692 0.0779,-33.31162 0.0972,-31.92781 0.26097,18.77612 l 0.17681,54.73818 h 31.8381 31.83809 l 0.0922,-18.39746 0.0922,-18.39746 31.91989,-0.15786 31.91988,-0.15786 0.0877,-148.28796 c 0.0482,-81.55838 0.20483,-148.287955 0.34795,-148.287955 0.14311,0 0.26026,75.079475 0.26026,166.843275 v 166.84328 l 30.18002,0.15804 30.18004,0.15804 0.0977,-18.09485 c 0.0538,-9.95218 0.13437,15.09597 0.17923,55.66255 l 0.0815,73.75741 -145.01117,7e-5 -145.01116,8e-5 z M -335,184.55461 c 0,-141.961906 0.0306,-149.470973 0.60892,-149.424597 0.36608,0.02938 0.43491,0.173573 0.17259,0.361624 -0.34815,0.249563 -0.4355,30.391258 -0.43213,149.110333 0.002,81.83866 -0.0753,148.93897 -0.17258,149.11181 C -334.9204,333.88663 -335,266.76501 -335,184.55461 Z m 444.90679,147.53684 c -0.0944,-0.27139 -0.0279,-0.89763 0.14813,-1.39166 0.24958,-0.7013 0.32083,-0.59312 0.325,0.49341 0.005,1.43064 -0.17131,1.76628 -0.47313,0.89825 z M -79.1637,251.25069 c 0.004,-1.36073 0.0751,-1.84456 0.15836,-1.07518 0.0832,0.76937 0.0801,1.8827 -0.007,2.47404 -0.0871,0.59135 -0.1552,-0.0382 -0.15133,-1.39886 z m -0.007,-6.49437 c 0,-1.19063 0.0716,-1.67771 0.15915,-1.08239 0.0875,0.59533 0.0875,1.56948 0,2.16479 -0.0875,0.59532 -0.15915,0.10824 -0.15915,-1.0824 z m 0,-6.80361 c 0,-1.19063 0.0716,-1.67771 0.15915,-1.0824 0.0875,0.59532 0.0875,1.56948 0,2.16479 -0.0875,0.59532 -0.15915,0.10824 -0.15915,-1.08239 z m 0,-6.80362 c 0,-1.19063 0.0716,-1.67771 0.15915,-1.08239 0.0875,0.59531 0.0875,1.56947 0,2.16478 -0.0875,0.59532 -0.15915,0.10825 -0.15915,-1.08239 z m 0,-6.1851 c 0,-1.19064 0.0716,-1.67772 0.15915,-1.0824 0.0875,0.59532 0.0875,1.56947 0,2.16479 -0.0875,0.59531 -0.15915,0.10824 -0.15915,-1.08239 z m 0,-6.80363 c 0,-1.19063 0.0716,-1.67771 0.15915,-1.08239 0.0875,0.59533 0.0875,1.56948 0,2.16479 -0.0875,0.59532 -0.15915,0.10825 -0.15915,-1.0824 z m 0,-6.80362 c 0,-1.19063 0.0716,-1.67771 0.15915,-1.08239 0.0875,0.59532 0.0875,1.56947 0,2.16479 -0.0875,0.59532 -0.15915,0.10824 -0.15915,-1.0824 z m 0,-6.1851 c 0,-1.19063 0.0716,-1.67771 0.15915,-1.0824 0.0875,0.59532 0.0875,1.56948 0,2.16479 -0.0875,0.59532 -0.15915,0.10824 -0.15915,-1.08239 z m 0,-6.80362 c 0,-1.19063 0.0716,-1.67771 0.15915,-1.08239 0.0875,0.59531 0.0875,1.56947 0,2.16478 -0.0875,0.59532 -0.15915,0.10824 -0.15915,-1.08239 z m 0,-6.80362 c 0,-1.19063 0.0716,-1.67771 0.15915,-1.08239 0.0875,0.59531 0.0875,1.56947 0,2.16479 -0.0875,0.59531 -0.15915,0.10823 -0.15915,-1.0824 z m 0,-6.18511 c 0,-1.19063 0.0716,-1.67771 0.15915,-1.08239 0.0875,0.59532 0.0875,1.56947 0,2.16478 -0.0875,0.59532 -0.15915,0.10825 -0.15915,-1.08239 z m 0,-6.80362 c 0,-1.19063 0.0716,-1.67771 0.15915,-1.08239 0.0875,0.59532 0.0875,1.56947 0,2.16479 -0.0875,0.59531 -0.15915,0.10824 -0.15915,-1.0824 z m 0,-6.80361 c 0,-1.19063 0.0716,-1.67771 0.15915,-1.0824 0.0875,0.59532 0.0875,1.56947 0,2.16479 -0.0875,0.59532 -0.15915,0.10824 -0.15915,-1.08239 z m 0,-6.18511 c 0,-1.19064 0.0716,-1.67771 0.15915,-1.08239 0.0875,0.59531 0.0875,1.56947 0,2.16479 -0.0875,0.59531 -0.15915,0.10823 -0.15915,-1.0824 z m 0,-6.80362 c 0,-1.19064 0.0716,-1.67771 0.15915,-1.08239 0.0875,0.59531 0.0875,1.56947 0,2.16479 -0.0875,0.59532 -0.15915,0.10823 -0.15915,-1.0824 z m -0.0816,-64.015855 c -0.0952,-32.65737 -0.14378,-59.47561 -0.10788,-59.596096 0.51981,-1.745302 0.60403,9.266262 0.45581,59.596096 L -79.07922,154.1445 Z M 109.86329,35.699692 c -0.11826,-0.340181 -0.0493,-0.618511 0.15347,-0.618511 0.20263,0 0.36847,0.27833 0.36847,0.618511 0,0.340181 -0.069,0.618511 -0.15343,0.618511 -0.0844,0 -0.25023,-0.27833 -0.36851,-0.618511 z"
         id="path2" /></g><path
       style="display:inline;fill:#ac9393;stroke-width:0.6733"
       d="m 395.53796,369.3204 c -1.84609,-0.44459 -3.40399,-1.6352 -4.43911,-3.39256 -0.81132,-1.37742 -0.83576,-2.17047 -0.83576,-27.11879 v -25.69987 l 0.98235,-1.58005 c 1.67106,-2.68783 3.41321,-3.27059 9.36871,-3.13394 l 5.11065,0.11726 v 30.50555 30.50554 l -4.38778,0.0684 c -2.41329,0.0376 -5.02286,-0.0846 -5.79906,-0.2715 z m -48.01532,-19.84265 c -2.44365,-0.76306 -4.52595,-2.4418 -5.57189,-4.492 -0.48112,-0.94309 -2.25045,-5.49235 -3.93183,-10.10949 -1.68138,-4.61713 -3.18503,-8.71977 -3.34143,-9.11699 -0.1564,-0.3972 -2.52703,-2.16336 -5.26805,-3.92479 -2.74103,-1.76142 -4.88121,-3.30506 -4.75596,-3.43031 0.12525,-0.12524 7.32271,-2.7867 15.99436,-5.91434 10.72436,-3.868 15.80868,-5.51955 15.89812,-5.16423 0.0723,0.28731 -0.53884,2.5959 -1.35812,5.1302 -0.8193,2.5343 -1.48962,5.04469 -1.48962,5.57863 0,0.53394 1.48519,5.03477 3.30042,10.00184 1.81522,4.96707 3.42899,9.7921 3.58614,10.72228 0.73606,4.35674 -2.51386,9.36929 -6.92373,10.67888 -2.61977,0.77798 -3.75228,0.78542 -6.13841,0.0403 z m 5.01645,-4.21445 c 1.69203,-0.40338 3.9403,-3.11142 4.28704,-5.16375 0.62268,-3.68564 -2.64204,-7.55876 -6.37141,-7.55876 -4.96934,0 -8.21155,5.01773 -6.10737,9.45194 1.06012,2.23403 4.39168,4.14408 6.42568,3.68396 0.34476,-0.078 1.13948,-0.26402 1.76606,-0.41339 z m -3.6529,-5.63853 c -0.53972,-1.7005 1.80566,-2.88695 2.66642,-1.34886 0.5721,1.02229 -0.17494,2.20468 -1.39295,2.20468 -0.64265,0 -1.09923,-0.30683 -1.27347,-0.85582 z m 14.95654,8.52247 c -0.39088,-0.1583 -0.37016,-0.42292 0.0878,-1.12189 0.32964,-0.5031 0.90704,-2.11578 1.28312,-3.58374 0.82177,-3.20768 0.55843,-6.12876 -0.90243,-10.01034 -0.55092,-1.46383 -1.00168,-2.9212 -1.00168,-3.2386 0,-0.47604 1.90214,-0.57707 10.86499,-0.57707 h 10.86498 v 9.4024 9.40239 l -10.34263,-0.033 c -5.68844,-0.0181 -10.57282,-0.12621 -10.85417,-0.24015 z m -91.56017,-19.15095 c -6.39956,-1.44035 -13.53801,-7.38902 -18.3938,-15.32807 -9.06406,-14.81943 -9.80963,-34.34235 -1.66575,-43.61771 0.69828,-0.7953 1.5792,-1.43963 1.9576,-1.43184 0.37841,0.008 1.89812,0.9802 3.37713,2.16094 l 2.68911,2.14679 -1.00031,0.65978 c -3.44495,2.2722 -5.50575,5.77965 -6.28033,10.689 -1.25998,7.98583 1.90019,19.89652 7.44562,28.06251 2.16047,3.18144 6.54137,7.27209 9.13026,8.52535 2.40692,1.16517 6.14161,1.52845 8.3205,0.80935 3.54739,-1.17074 6.56684,-5.65739 7.22189,-10.73115 0.23208,-1.7975 0.4734,-2.4012 0.92846,-2.32263 0.33818,0.0584 1.69616,0.33388 3.01771,0.61222 2.30462,0.48539 2.40283,0.55945 2.40283,1.81195 0,0.71824 -0.37147,2.75834 -0.8255,4.53358 -2.60099,10.16977 -9.69246,15.36294 -18.32542,13.41993 z m 21.52386,-7.34372 c 1.02754,-2.54393 2.24765,-7.1729 2.91133,-11.04525 l 0.35717,-2.08398 39.59157,-14.39058 c 21.77536,-7.91482 39.71764,-14.2645 39.87173,-14.11041 0.43475,0.43475 -1.39396,7.31364 -2.59913,9.77693 -1.50403,3.07412 -4.81458,6.55907 -7.41597,7.80664 -2.04325,0.97991 -72.76458,26.57719 -73.42865,26.57719 -0.1706,0 0.14978,-1.13874 0.71195,-2.53054 z m -22.2865,-5.43327 c -7.98525,-3.95267 -15.39431,-21.09452 -13.52617,-31.29458 0.89945,-4.91104 2.60908,-7.12675 5.49893,-7.12675 1.35787,0 1.7493,0.2591 3.26234,2.15939 2.69726,3.38761 4.56064,6.69991 8.00063,14.22168 1.75539,3.83827 3.78139,7.89776 4.50223,9.02109 1.42356,2.21843 1.54878,3.24369 0.85469,6.99833 -1.14516,6.19478 -4.08283,8.25319 -8.59265,6.02084 z m 1.87498,-10.69284 c 3.17958,-2.05755 2.74356,-9.76104 -0.79532,-14.0515 -2.30155,-2.79034 -5.46781,-3.68733 -7.74621,-2.19446 -3.47167,2.27472 -2.81186,10.35469 1.20106,14.70819 2.4132,2.61802 4.87438,3.13361 7.34047,1.53777 z m -3.77992,-5.02413 c -1.08263,-1.20471 -2.00089,-3.68911 -2.00089,-5.41351 0,-1.50492 0.0191,-1.52349 0.82075,-0.79802 1.12811,1.02093 2.19558,3.98365 2.03139,5.6381 -0.13161,1.32628 -0.15845,1.34435 -0.85125,0.57343 z m 18.47543,3.24857 c -2.85913,-1.01289 -5.24287,-3.51304 -6.64622,-6.97078 -1.79995,-4.43497 -6.6502,-14.11444 -8.41075,-16.78506 -2.35824,-3.57726 -9.41399,-10.87454 -13.46904,-13.93011 -3.52236,-2.65419 -8.48601,-5.3554 -11.4998,-6.25819 -0.98419,-0.29481 -1.64235,-0.67668 -1.4626,-0.84859 0.17976,-0.17191 22.32843,-8.36209 49.21927,-18.20039 l 48.89244,-17.88783 5.22356,1e-4 c 4.85952,9e-5 5.44607,0.0896 8.41654,1.28383 6.70227,2.69465 13.39063,8.38739 18.85251,16.04617 3.20195,4.48984 8.27799,14.27236 10.30048,19.85103 2.24507,6.19262 1.66887,8.96495 -2.25504,10.84993 -4.567,2.19393 -90.72971,33.27785 -92.77356,33.46885 -1.4304,0.13368 -2.81435,-0.0615 -4.38779,-0.61896 z m -49.24514,-13.31194 c -6.79143,-10.99148 -9.52597,-19.24332 -7.83996,-23.65808 1.0938,-2.86408 1.78071,-3.2652 5.98426,-3.49446 3.74837,-0.20443 7.62471,0.42287 10.79282,1.74659 l 1.48475,0.62036 -1.68284,2.12895 c -4.11738,5.20888 -5.99631,11.71074 -6.00398,20.77616 -0.003,3.27517 -0.0529,5.95485 -0.1113,5.95485 -0.0584,0 -1.23914,-1.83346 -2.62375,-4.07437 z"
       id="path9" /><text
       xml:space="preserve"
       style="font-weight:bold;font-stretch:condensed;font-size:37.3333px;line-height:115.448px;font-family:'DIN 1451 Std';-inkscape-font-specification:'DIN 1451 Std Bold Condensed';text-align:start;writing-mode:lr-tb;direction:ltr;text-anchor:start;fill:#ac9393;fill-opacity:1;stroke:none;stroke-width:12.007;stroke-opacity:0.410648"
       x="259.86246"
       y="437.90405"
       id="text3"><tspan
         sodipodi:role="line"
         id="tspan3"
         x="259.86246"
         y="437.90405"
         style="font-size:37.3333px;line-height:115.448px;fill:#ac9393">DISCONECT</tspan></text></g></svg>
