<?xml version="1.0" encoding="UTF-8" standalone="no"?>
<!-- Created with Inkscape (http://www.inkscape.org/) -->

<svg
   version="1.1"
   id="svg1"
   width="651"
   height="650"
   viewBox="0 0 651 650"
   sodipodi:docname="template.svg"
   inkscape:version="1.4.1 (93de688d07, 2025-03-30)"
   inkscape:export-filename="not_image.png"
   inkscape:export-xdpi="96"
   inkscape:export-ydpi="96"
   xml:space="preserve"
   xmlns:inkscape="http://www.inkscape.org/namespaces/inkscape"
   xmlns:sodipodi="http://sodipodi.sourceforge.net/DTD/sodipodi-0.dtd"
   xmlns="http://www.w3.org/2000/svg"
   xmlns:svg="http://www.w3.org/2000/svg"><defs
     id="defs1" /><sodipodi:namedview
     id="namedview1"
     pagecolor="#ffffff"
     bordercolor="#000000"
     borderopacity="0.25"
     inkscape:showpageshadow="2"
     inkscape:pageopacity="0.0"
     inkscape:pagecheckerboard="0"
     inkscape:deskcolor="#d1d1d1"
     inkscape:zoom="0.58496651"
     inkscape:cx="-29.061493"
     inkscape:cy="34.189992"
     inkscape:window-width="1865"
     inkscape:window-height="1012"
     inkscape:window-x="0"
     inkscape:window-y="0"
     inkscape:window-maximized="1"
     inkscape:current-layer="g1" /><g
     inkscape:groupmode="layer"
     inkscape:label="Image"
     id="g1"><g
       id="g2"
       transform="matrix(0.5045806,0,0,0.5045806,-83.450143,-68.412888)"
       style="stroke-width:0.999894;stroke-dasharray:none"
       inkscape:export-filename="logo.png"
       inkscape:export-xdpi="96"
       inkscape:export-ydpi="96"><circle
         style="opacity:1;fill:#e10000;fill-opacity:1;stroke-width:0.999894;stroke-dasharray:none;stroke-opacity:0.410648"
         id="path1"
         cx="275.50272"
         cy="253.4903"
         r="77.391182" /><g
         id="g9"
         transform="matrix(0.41701792,0,0,0.41701792,139.35723,121.71746)"
         style="fill:#9dff80;fill-opacity:1;stroke-width:2.39772;stroke-dasharray:none"><path
           style="display:inline;fill:#9dff80;fill-opacity:1;stroke-width:2.39772;stroke-dasharray:none"
           d="m 428.84135,425.41452 c -2.74184,-0.66031 -5.05567,-2.42864 -6.59305,-5.0387 -1.205,-2.04578 -1.2413,-3.22364 -1.2413,-40.27741 v -38.17 l 1.45901,-2.34673 c 2.4819,-3.99201 5.06937,-4.85755 13.91461,-4.65459 l 7.59045,0.17416 v 45.30749 45.30748 l -6.51683,0.10154 c -3.58426,0.0558 -7.46006,-0.12561 -8.61289,-0.40324 z m -71.31337,-29.47073 c -3.62937,-1.13332 -6.72204,-3.62661 -8.27549,-6.67162 -0.71458,-1.40069 -3.34242,-8.15735 -5.83964,-15.01482 -2.49723,-6.85747 -4.73048,-12.9508 -4.96277,-13.54075 -0.23229,-0.58994 -3.75319,-3.21307 -7.82422,-5.82918 -4.07103,-2.6161 -7.24967,-4.90875 -7.06365,-5.09477 0.18602,-0.18602 10.87584,-4.13887 23.75516,-8.78411 15.92806,-5.74484 23.4794,-8.19776 23.61223,-7.67003 0.10741,0.42672 -0.80029,3.85549 -2.01711,7.61949 -1.21683,3.764 -2.21241,7.49248 -2.21241,8.2855 0,0.79302 2.20583,7.47774 4.90185,14.85494 2.69601,7.37721 5.09281,14.54344 5.32621,15.92496 1.09322,6.47072 -3.73363,13.91547 -10.28327,15.8605 -3.89094,1.15548 -5.57296,1.16653 -9.11689,0.0599 z m 7.45053,-6.25939 c 2.51305,-0.59911 5.85222,-4.62115 6.36721,-7.66931 0.92482,-5.47399 -3.92401,-11.22643 -9.46296,-11.22643 -7.38057,0 -12.19596,7.45243 -9.07079,14.03822 1.57451,3.31803 6.52262,6.15487 9.54356,5.47149 0.51204,-0.11583 1.69238,-0.39212 2.62298,-0.61397 z m -5.42536,-8.37447 c -0.8016,-2.52561 2.6818,-4.28776 3.96022,-2.00336 0.8497,1.51834 -0.25982,3.27444 -2.06883,3.27444 -0.95449,0 -1.6326,-0.45571 -1.89139,-1.27108 z m 22.21378,12.65776 c -0.58055,-0.23512 -0.54978,-0.62813 0.13042,-1.66626 0.48959,-0.74721 1.34716,-3.1424 1.90572,-5.32264 1.22051,-4.76412 0.8294,-9.10257 -1.3403,-14.86757 -0.81825,-2.17412 -1.48772,-4.33864 -1.48772,-4.81004 0,-0.70703 2.82509,-0.85708 16.13691,-0.85708 h 16.13691 v 13.96464 13.96463 l -15.3611,-0.049 c -8.4486,-0.0269 -15.70298,-0.18745 -16.12084,-0.35668 z M 245.7798,365.52428 c -9.50477,-2.13923 -20.10695,-10.97432 -27.31887,-22.76557 -13.46213,-22.01014 -14.56947,-51.00599 -2.474,-64.78196 1.0371,-1.18119 2.34546,-2.13816 2.90747,-2.1266 0.56202,0.0116 2.81912,1.45582 5.01578,3.20947 l 3.99392,3.18846 -1.48568,0.97992 c -5.11651,3.37473 -8.17726,8.58406 -9.32768,15.87553 -1.87134,11.86073 2.82221,29.55075 11.05839,41.67905 3.20878,4.72514 9.71539,10.80066 13.56047,12.66203 3.57481,1.73054 9.12164,2.27009 12.35778,1.20207 5.26866,-1.73882 9.75321,-8.40249 10.72611,-15.93814 0.34468,-2.66968 0.7031,-3.56631 1.37896,-3.44962 0.50228,0.0867 2.51917,0.49589 4.48197,0.90928 3.42287,0.72091 3.56874,0.83091 3.56874,2.69115 0,1.06674 -0.55172,4.09675 -1.22606,6.73337 -3.86304,15.10436 -14.39544,22.81736 -27.2173,19.93156 z m 31.96769,-10.90704 c 1.52613,-3.77831 3.33827,-10.65335 4.32398,-16.40465 l 0.53048,-3.09517 58.80224,-21.3732 c 32.34123,-11.75525 58.98949,-21.18594 59.21835,-20.95708 0.6457,0.6457 -2.07034,10.86237 -3.86029,14.52091 -2.23381,4.56575 -7.15071,9.74167 -11.01435,11.59459 -3.03468,1.45538 -108.07152,39.47301 -109.05781,39.47301 -0.25338,0 0.22246,-1.69129 1.0574,-3.75841 z m -33.10038,-8.06962 c -11.85986,-5.87059 -22.86396,-31.33002 -20.08936,-46.47937 1.33589,-7.29398 3.87506,-10.58481 8.16713,-10.58481 2.01674,0 2.5981,0.38482 4.8453,3.20718 4.00602,5.03135 6.77356,9.95085 11.88271,21.12234 2.60714,5.70068 5.6162,11.72993 6.68681,13.39832 2.1143,3.29485 2.30027,4.8176 1.2694,10.39406 -1.70082,9.20062 -6.06391,12.25782 -12.76199,8.94228 z m 2.78476,-15.88123 c 4.72238,-3.05592 4.07479,-14.49731 -1.18123,-20.86959 -3.4183,-4.14427 -8.12091,-5.47649 -11.50484,-3.25926 -5.15619,3.37847 -4.17623,15.37901 1.78384,21.84493 3.58414,3.88833 7.23954,4.6541 10.90223,2.28392 z m -5.61402,-7.46195 c -1.60795,-1.78926 -2.97176,-5.47914 -2.97176,-8.04026 0,-2.23513 0.0284,-2.26272 1.21899,-1.18523 1.6755,1.5163 3.26092,5.9166 3.01707,8.37382 -0.19547,1.96982 -0.23533,1.99667 -1.2643,0.85167 z m 27.44011,4.82485 c -4.24645,-1.50436 -7.78683,-5.21764 -9.87111,-10.35315 -2.67333,-6.58691 -9.87702,-20.96307 -12.49183,-24.92953 -3.5025,-5.31302 -13.98185,-16.1511 -20.0045,-20.6893 -5.23149,-3.94205 -12.60361,-7.95395 -17.07976,-9.29479 -1.46173,-0.43786 -2.43925,-1.00502 -2.17228,-1.26035 0.26698,-0.25533 33.16266,-12.41955 73.10151,-27.03161 l 72.61611,-26.56738 7.75813,1.4e-4 c 7.21747,1.3e-4 8.08862,0.13302 12.50043,1.90678 9.95436,4.00214 19.88805,12.45712 28.00016,23.83211 4.7556,6.6684 12.29464,21.19762 15.29849,29.48318 3.33442,9.1974 2.47864,13.31493 -3.34924,16.11455 -6.78301,3.25846 -134.7537,49.42497 -137.78928,49.70865 -2.12446,0.19854 -4.17992,-0.0914 -6.51683,-0.9193 z m -73.13994,-19.77117 c -10.08677,-16.32478 -14.14818,-28.58059 -11.64408,-35.13749 1.62454,-4.2538 2.64476,-4.84955 8.88795,-5.19005 5.56716,-0.30363 11.32439,0.62805 16.02973,2.59407 l 2.20518,0.92138 -2.49938,3.16196 c -6.11523,7.73634 -8.90586,17.39304 -8.91724,30.8572 -0.004,4.86435 -0.0785,8.84427 -0.16531,8.84427 -0.0868,0 -1.84039,-2.7231 -3.89685,-6.05134 z"
           id="path9" /></g></g><rect
       style="opacity:1;fill:none;fill-opacity:1;stroke-width:0.536695;stroke-dasharray:none;stroke-opacity:0.410648"
       id="rect23"
       width="34.842949"
       height="34.842949"
       x="38.089806"
       y="280.87955"
       ry="1.7589955"
       inkscape:export-filename="full.png"
       inkscape:export-xdpi="96"
       inkscape:export-ydpi="96" /><rect
       style="fill:none;fill-opacity:1;stroke-width:0.536695;stroke-dasharray:none;stroke-opacity:0.410648"
       id="rect23-9"
       width="34.842949"
       height="34.842949"
       x="83.609993"
       y="280.44012"
       ry="1.7589955"
       inkscape:export-filename="low.png"
       inkscape:export-xdpi="96"
       inkscape:export-ydpi="96" /><g
       id="g16"
       inkscape:export-filename="full.png"
       inkscape:export-xdpi="96"
       inkscape:export-ydpi="96"
       transform="matrix(0.57032949,0,0,0.57032949,16.231719,120.40304)"><path
         style="fill:#cccccc;stroke-width:0.17296"
         d="m 54.456931,330.71436 c 2.091766,-2.14038 3.838775,-3.86901 3.882242,-3.8414 0.04347,0.0276 -1.667978,1.77883 -3.803212,3.8916 l -3.882241,3.8414 z m 28.024106,0.006 c -2.087639,-2.08926 -3.760366,-3.82102 -3.71717,-3.84836 0.0432,-0.0274 1.788909,1.68205 3.87936,3.79865 2.090451,2.1166 3.763178,3.84836 3.71717,3.84836 -0.04601,0 -1.79172,-1.70939 -3.87936,-3.79865 z m -33.214825,-5.19528 c 2.091196,-2.09282 3.841092,-3.80512 3.888656,-3.80512 0.04756,0 -1.6245,1.7123 -3.715696,3.80512 -2.091196,2.09282 -3.841091,3.80513 -3.888655,3.80513 -0.04756,0 1.624499,-1.71231 3.715695,-3.80513 z m 41.330986,2.89709 -0.858299,-0.90805 0.908041,0.8583 c 0.843767,0.79755 0.987361,0.95779 0.858299,0.95779 -0.02736,0 -0.435977,-0.40862 -0.908041,-0.90804 z m -3.023123,-3.02681 -1.986221,-2.03228 2.032282,1.98622 c 1.117756,1.09242 2.032283,2.00695 2.032283,2.03228 0,0.12456 -0.233426,-0.0985 -2.078344,-1.98622 z m -2.970674,-2.90109 c -0.446321,-0.42587 -0.754397,-0.77431 -0.684612,-0.77431 0.06978,0 0.470619,0.35024 0.890744,0.77832 0.984736,1.00337 0.846812,1.00069 -0.206132,-0.004 z m -35.338663,-25.03198 -3.80365,-3.84837 3.885149,3.80513 c 2.136832,2.09282 3.920484,3.82458 3.963671,3.84836 0.04319,0.0238 0.0065,0.0432 -0.0815,0.0432 -0.08801,0 -1.871663,-1.73176 -3.963671,-3.84836 z m 34.404038,3.64868 c -0.08038,-0.13006 -0.04699,-0.15245 0.09579,-0.0642 0.147968,0.0915 1.463391,-1.0942 4.048048,-3.64868 l 3.828851,-3.78416 -3.803651,3.84837 c -2.092007,2.1166 -3.858093,3.84836 -3.924636,3.84836 -0.06654,0 -0.176522,-0.0899 -0.244398,-0.19968 z m -4.838801,-4.83628 c -0.07029,-0.11372 1.471329,-1.76636 3.751182,-4.02132 l 3.870509,-3.82825 -3.783657,3.82885 c -2.212042,2.23846 -3.734247,3.9088 -3.664702,4.02132 0.06542,0.10586 0.08004,0.19248 0.03247,0.19248 -0.04756,0 -0.140178,-0.0869 -0.205807,-0.19308 z m -22.121959,-1.70815 -1.552126,-1.64446 1.630815,1.59326 c 0.896949,0.8763 1.595406,1.6163 1.552127,1.64446 -0.04328,0.0281 -0.777146,-0.68881 -1.630816,-1.59326 z m -3.898715,-3.93618 -2.159407,-2.20524 2.205242,2.15941 c 1.212884,1.18767 2.205243,2.18003 2.205243,2.20524 0,0.12426 -0.245211,-0.11096 -2.251078,-2.15941 z"
         id="path16" /><path
         style="fill:#cccccc;stroke-width:0.17296"
         d="m 79.966648,341.00549 c 0.322706,-0.33295 0.625654,-0.60536 0.673218,-0.60536 0.04757,0 -0.177552,0.27241 -0.500258,0.60536 -0.322706,0.33295 -0.625655,0.60536 -0.673219,0.60536 -0.04756,0 0.177552,-0.27241 0.500259,-0.60536 z m 1.383681,-1.38368 c 0.322706,-0.33295 0.625655,-0.60536 0.673219,-0.60536 0.04756,0 -0.177552,0.27241 -0.500259,0.60536 -0.322706,0.33295 -0.625654,0.60536 -0.673218,0.60536 -0.04757,0 0.177552,-0.27241 0.500258,-0.60536 z m 1.383682,-1.38368 c 0.322706,-0.33295 0.625655,-0.60536 0.673219,-0.60536 0.04756,0 -0.177553,0.27241 -0.500259,0.60536 -0.322706,0.33294 -0.625655,0.60536 -0.673219,0.60536 -0.04756,0 0.177553,-0.27242 0.500259,-0.60536 z m 1.383681,-1.38369 c 0.322707,-0.33294 0.625655,-0.60536 0.673219,-0.60536 0.04756,0 -0.177552,0.27242 -0.500258,0.60536 -0.322707,0.33295 -0.625655,0.60537 -0.673219,0.60537 -0.04756,0 0.177552,-0.27242 0.500258,-0.60537 z m 1.124242,-1.12424 c 0.172179,-0.19025 0.351969,-0.34592 0.399533,-0.34592 0.04756,0 -0.05439,0.15567 -0.226573,0.34592 -0.17218,0.19026 -0.35197,0.34592 -0.399534,0.34592 -0.04756,0 0.05439,-0.15566 0.226574,-0.34592 z m 7.437288,-7.43729 c 0.17218,-0.19025 0.351971,-0.34592 0.399535,-0.34592 0.04756,0 -0.05439,0.15567 -0.226575,0.34592 -0.17218,0.19026 -0.35197,0.34593 -0.399534,0.34593 -0.04756,0 0.05439,-0.15567 0.226574,-0.34593 z m 0.951281,-0.95128 c 0.223422,-0.23782 0.445136,-0.4324 0.4927,-0.4324 0.04756,0 -0.09632,0.19458 -0.319739,0.4324 -0.223422,0.23782 -0.445136,0.4324 -0.4927,0.4324 -0.04756,0 0.09632,-0.19458 0.319739,-0.4324 z m -38.053481,-3.15652 -2.505686,-2.55116 2.551163,2.50568 c 1.40314,1.37813 2.551163,2.52615 2.551163,2.55117 0,0.12378 -0.268927,-0.13573 -2.59664,-2.50569 z m 23.697785,2.11876 c 0.22342,-0.23782 0.445135,-0.4324 0.492699,-0.4324 0.04756,0 -0.09632,0.19458 -0.319739,0.4324 -0.22342,0.23782 -0.445135,0.4324 -0.492699,0.4324 -0.04756,0 0.09632,-0.19458 0.319739,-0.4324 z m 15.912338,-0.51888 c 0.322706,-0.33295 0.625654,-0.60536 0.673218,-0.60536 0.04756,0 -0.177552,0.27241 -0.500258,0.60536 -0.322705,0.33295 -0.625654,0.60536 -0.673218,0.60536 -0.04756,0 0.177553,-0.27241 0.500258,-0.60536 z m -13.663856,-1.7296 c 0.89996,-0.90372 1.675206,-1.64312 1.72277,-1.64312 0.04756,0 -0.64985,0.7394 -1.549809,1.64312 -0.89996,0.90372 -1.675206,1.64312 -1.72277,1.64312 -0.04756,0 0.64985,-0.7394 1.549809,-1.64312 z m 15.047538,0.34592 c 0.322705,-0.33295 0.625654,-0.60536 0.673218,-0.60536 0.04756,0 -0.177552,0.27241 -0.500258,0.60536 -0.322706,0.33295 -0.625654,0.60536 -0.673218,0.60536 -0.04756,0 0.177552,-0.27241 0.500258,-0.60536 z m 1.210721,-1.21072 c 0.223422,-0.23782 0.445136,-0.4324 0.4927,-0.4324 0.04756,0 -0.09632,0.19458 -0.31974,0.4324 -0.223421,0.23782 -0.445135,0.4324 -0.492699,0.4324 -0.04756,0 0.09632,-0.19458 0.319739,-0.4324 z m -43.67245,-22.91723 c 0.468488,-0.47564 0.890713,-0.8648 0.938277,-0.8648 0.04756,0 -0.296829,0.38916 -0.765317,0.8648 -0.468489,0.47564 -0.890713,0.8648 -0.938277,0.8648 -0.04756,0 0.296828,-0.38916 0.765317,-0.8648 z m 27.152256,-1.59988 -2.245988,-2.29172 2.291723,2.24598 c 2.128819,2.08634 2.370116,2.33746 2.245987,2.33746 -0.02515,0 -1.05643,-1.03127 -2.291722,-2.29172 z m -25.509134,-0.0432 c 0.322706,-0.33295 0.625654,-0.60536 0.673218,-0.60536 0.04756,0 -0.177552,0.27241 -0.500258,0.60536 -0.322706,0.33295 -0.625655,0.60536 -0.673219,0.60536 -0.04756,0 0.177552,-0.27241 0.500259,-0.60536 z m 40.978476,0.12972 -0.41931,-0.47564 0.475641,0.41931 c 0.444558,0.39191 0.554958,0.53197 0.419309,0.53197 -0.03098,0 -0.245019,-0.21404 -0.47564,-0.47564 z m -39.429063,-1.64312 c 0.716741,-0.76365 0.872029,-0.90097 0.872029,-0.77109 0,0.0277 -0.369702,0.39746 -0.821561,0.82156 l -0.821561,0.77109 z m 35.278018,-2.50792 -0.419309,-0.47564 0.47564,0.4193 c 0.444558,0.39191 0.554959,0.53198 0.419309,0.53198 -0.03098,0 -0.245018,-0.21404 -0.47564,-0.47564 z m -7.00823,-7.00489 -0.329487,-0.38916 0.38916,0.32948 c 0.365715,0.30964 0.467899,0.44884 0.329487,0.44884 -0.03282,0 -0.207942,-0.17512 -0.38916,-0.38916 z m -1.475791,-1.47016 c -0.21514,-0.27433 -0.209022,-0.28045 0.0653,-0.0653 0.288109,0.22595 0.379731,0.36799 0.237379,0.36799 -0.03592,0 -0.172123,-0.13621 -0.302681,-0.30268 z m -1.037761,-1.03776 c -0.21514,-0.27433 -0.209022,-0.28045 0.0653,-0.0653 0.166474,0.13056 0.302681,0.26677 0.302681,0.30268 0,0.14236 -0.142033,0.0507 -0.367983,-0.23737 z m -1.54767,-1.55665 -0.41931,-0.47564 0.47564,0.41931 c 0.444558,0.39191 0.554958,0.53197 0.41931,0.53197 -0.03098,0 -0.24502,-0.21403 -0.47564,-0.47564 z m -1.729602,-1.7296 -0.41931,-0.47564 0.47564,0.41931 c 0.444558,0.39191 0.554958,0.53197 0.41931,0.53197 -0.03098,0 -0.24502,-0.21404 -0.47564,-0.47564 z"
         id="path15" /><path
         style="fill:#cccccc;stroke-width:0.17296"
         d="m 57.472511,341.48113 -0.59605,-0.6486 0.648601,0.59605 c 0.603703,0.55479 0.728125,0.70115 0.596049,0.70115 -0.0289,0 -0.320773,-0.29187 -0.6486,-0.6486 z m -1.383682,-1.38368 -0.59605,-0.6486 0.648601,0.59605 c 0.603704,0.55479 0.728126,0.70115 0.59605,0.70115 -0.0289,0 -0.320774,-0.29187 -0.648601,-0.6486 z m -1.383682,-1.38368 -0.596049,-0.6486 0.6486,0.59605 c 0.603704,0.55479 0.728126,0.70115 0.59605,0.70115 -0.0289,0 -0.320773,-0.29187 -0.648601,-0.6486 z m -1.383681,-1.38368 -0.59605,-0.64861 0.648601,0.59605 c 0.603703,0.55479 0.728125,0.70116 0.59605,0.70116 -0.0289,0 -0.320774,-0.29187 -0.648601,-0.6486 z m -1.383681,-1.38369 -0.596051,-0.6486 0.648601,0.59605 c 0.356731,0.32783 0.648601,0.6197 0.648601,0.6486 0,0.13208 -0.146362,0.008 -0.701151,-0.59605 z m 33.995989,-0.90804 c 0.17218,-0.19025 0.35197,-0.34592 0.399534,-0.34592 0.04756,0 -0.05439,0.15567 -0.226573,0.34592 -0.17218,0.19026 -0.35197,0.34592 -0.399534,0.34592 -0.04756,0 0.05439,-0.15566 0.226573,-0.34592 z m -41.091138,-6.18332 -0.419309,-0.47564 0.47564,0.4193 c 0.444558,0.39191 0.554958,0.53198 0.419309,0.53198 -0.03098,0 -0.245019,-0.21404 -0.47564,-0.47564 z m -1.206941,-1.21073 -0.59605,-0.6486 0.648601,0.59605 c 0.603703,0.55479 0.728126,0.70115 0.59605,0.70115 -0.0289,0 -0.320774,-0.29187 -0.648601,-0.6486 z m -1.383681,-1.38368 -0.596051,-0.6486 0.648601,0.59605 c 0.603704,0.55479 0.728126,0.70115 0.59605,0.70115 -0.0289,0 -0.320773,-0.29187 -0.6486,-0.6486 z m -1.383682,-1.38368 -0.59605,-0.6486 0.6486,0.59605 c 0.603704,0.55479 0.728127,0.70115 0.596051,0.70115 -0.0289,0 -0.320774,-0.29187 -0.648601,-0.6486 z m -1.383682,-1.38368 -0.59605,-0.6486 0.648601,0.59605 c 0.603704,0.55479 0.728126,0.70115 0.59605,0.70115 -0.0289,0 -0.320774,-0.29187 -0.648601,-0.6486 z m -1.214502,-1.21072 -0.419309,-0.47564 0.47564,0.41931 c 0.444558,0.39191 0.554959,0.53197 0.41931,0.53197 -0.03098,0 -0.245019,-0.21404 -0.475641,-0.47564 z m 0.359012,-21.90153 c 0,-0.0359 0.136206,-0.17212 0.30268,-0.30268 0.274325,-0.21514 0.280443,-0.20902 0.0653,0.0653 -0.22595,0.28811 -0.367983,0.37973 -0.367983,0.23738 z m 1.297201,-1.31838 c 0.17218,-0.19026 0.351971,-0.34592 0.399535,-0.34592 0.04756,0 -0.05439,0.15566 -0.226574,0.34592 -0.172181,0.19026 -0.351971,0.34592 -0.399535,0.34592 -0.04756,0 0.05439,-0.15566 0.226574,-0.34592 z m 2.853844,-2.85384 c 0.223421,-0.23782 0.445135,-0.4324 0.492699,-0.4324 0.04756,0 -0.09632,0.19458 -0.319739,0.4324 -0.223422,0.23782 -0.445136,0.4324 -0.4927,0.4324 -0.04756,0 0.09632,-0.19458 0.31974,-0.4324 z m 1.297201,-1.2972 c 0.17218,-0.19026 0.351971,-0.34592 0.399535,-0.34592 0.04756,0 -0.05439,0.15566 -0.226575,0.34592 -0.17218,0.19025 -0.35197,0.34592 -0.399534,0.34592 -0.04756,0 0.05439,-0.15567 0.226574,-0.34592 z m 1.037761,-1.03776 c 0.17218,-0.19026 0.351971,-0.34593 0.399535,-0.34593 0.04756,0 -0.05439,0.15567 -0.226574,0.34593 -0.172181,0.19025 -0.351971,0.34592 -0.399535,0.34592 -0.04756,0 0.05439,-0.15567 0.226574,-0.34592 z m 41.055986,-5.66445 c -0.21514,-0.27433 -0.209023,-0.28044 0.0653,-0.0653 0.166474,0.13055 0.30268,0.26676 0.30268,0.30268 0,0.14235 -0.142032,0.0507 -0.367982,-0.23738 z m -35.002379,-0.38916 c 0.17218,-0.19026 0.351971,-0.34592 0.399535,-0.34592 0.04756,0 -0.05439,0.15566 -0.226575,0.34592 -0.17218,0.19025 -0.35197,0.34592 -0.399534,0.34592 -0.04756,0 0.05439,-0.15567 0.226574,-0.34592 z m 1.210722,-1.21072 c 0.17218,-0.19026 0.351969,-0.34592 0.399533,-0.34592 0.04756,0 -0.05439,0.15566 -0.226573,0.34592 -0.17218,0.19025 -0.351971,0.34592 -0.399535,0.34592 -0.04756,0 0.05439,-0.15567 0.226575,-0.34592 z m 32.235015,0.0432 c -0.21514,-0.27433 -0.209023,-0.28045 0.0653,-0.0653 0.288108,0.22595 0.379731,0.36799 0.237378,0.36799 -0.03592,0 -0.172122,-0.13621 -0.30268,-0.30268 z m -30.851334,-1.42692 c 0.17218,-0.19026 0.35197,-0.34593 0.399534,-0.34593 0.04756,0 -0.05439,0.15567 -0.226574,0.34593 -0.172179,0.19025 -0.351969,0.34592 -0.399533,0.34592 -0.04756,0 0.05439,-0.15567 0.226573,-0.34592 z m 2.767363,-2.76737 c 0.17218,-0.19025 0.35197,-0.34592 0.399534,-0.34592 0.04756,0 -0.05439,0.15567 -0.226573,0.34592 -0.17218,0.19026 -0.35197,0.34592 -0.399534,0.34592 -0.04756,0 0.05439,-0.15566 0.226573,-0.34592 z m 23.932926,0.0432 c -0.21514,-0.27432 -0.209022,-0.28044 0.0653,-0.0653 0.288108,0.22595 0.379731,0.36798 0.237379,0.36798 -0.03592,0 -0.172123,-0.1362 -0.302681,-0.30268 z m -22.808684,-1.1463 c 0,-0.0359 0.136206,-0.17212 0.30268,-0.30268 0.274325,-0.21514 0.280442,-0.20902 0.0653,0.0653 -0.22595,0.28811 -0.367982,0.37973 -0.367982,0.23738 z"
         id="path14" /><path
         style="fill:#cccccc;stroke-width:0.17296"
         d="m 38.077849,342.18454 c 0.124857,-0.05 0.274035,-0.0438 0.331508,0.0136 0.05747,0.0575 -0.04468,0.0983 -0.22701,0.0908 -0.20149,-0.008 -0.242473,-0.0493 -0.104498,-0.1045 z m 5.091516,-0.0115 c 2.544677,-0.027 6.708694,-0.027 9.253371,0 2.544677,0.027 0.462668,0.049 -4.626686,0.049 -5.089353,0 -7.171362,-0.0221 -4.626685,-0.049 z m 36.245972,0.0115 c 0.124856,-0.05 0.274034,-0.0438 0.331507,0.0136 0.05747,0.0575 -0.04468,0.0983 -0.22701,0.0908 -0.201489,-0.008 -0.242473,-0.0493 -0.104497,-0.1045 z m 5.079308,-0.0114 c 2.537963,-0.0269 6.740896,-0.027 9.339851,-5e-5 2.598955,0.0269 0.52244,0.049 -4.614478,0.049 -5.136918,3e-5 -7.263335,-0.022 -4.725373,-0.0489 z m 14.292234,0.0114 c 0.124855,-0.05 0.274035,-0.0438 0.331508,0.0136 0.05747,0.0575 -0.04468,0.0983 -0.22701,0.0908 -0.20149,-0.008 -0.242473,-0.0493 -0.104498,-0.1045 z m 0.392006,-0.67458 c 0.0083,-0.20149 0.04928,-0.24248 0.104496,-0.1045 0.04996,0.12485 0.04382,0.27403 -0.01365,0.33151 -0.05747,0.0575 -0.09835,-0.0447 -0.09084,-0.22701 z m -61.333794,-9.32544 c -2.6e-5,-5.23205 0.02196,-7.3974 0.04885,-4.81189 0.02689,2.58551 0.02691,6.86627 4.8e-5,9.51281 -0.02687,2.64654 -0.04887,0.53113 -0.0489,-4.70092 z m 61.400724,-0.25944 c 0,-5.08935 0.02206,-7.17136 0.04901,-4.62669 0.02696,2.54468 0.02696,6.7087 0,9.25337 -0.02696,2.54468 -0.04901,0.46267 -0.04901,-4.62668 z M 37.798077,300.35984 c 0.0035,-0.28538 0.04229,-0.38119 0.08614,-0.21291 0.04385,0.16829 0.04097,0.40179 -0.0064,0.51888 -0.04738,0.1171 -0.08326,-0.0206 -0.07973,-0.30597 z m 0.04682,-9.68577 c 2.8e-5,-5.04179 0.02212,-7.0794 0.04909,-4.52803 0.02697,2.55137 0.02695,6.67647 -5.2e-5,9.16689 -0.027,2.49042 -0.04906,0.40293 -0.04903,-4.63886 z m 61.400819,-0.0865 c 0,-4.99422 0.0221,-7.03732 0.04911,-4.5402 0.02701,2.49711 0.02701,6.58329 0,9.08041 -0.02701,2.49711 -0.04911,0.45402 -0.04911,-4.54021 z m -0.08048,-9.38482 c 0,-0.15157 -0.136206,-0.31118 -0.302681,-0.35468 -0.28367,-0.0741 -0.283329,-0.0804 0.0054,-0.0992 0.312709,-0.0204 0.602457,0.42423 0.405101,0.62159 -0.05932,0.0593 -0.107851,-0.0162 -0.107851,-0.16774 z m -56.502502,-0.43058 c 2.64654,-0.0269 6.927305,-0.0268 9.512811,5e-5 2.585507,0.0269 0.420157,0.0489 -4.811889,0.0489 -5.232046,-3e-5 -7.34746,-0.022 -4.700922,-0.0489 z m 14.519705,0.01 c 0.168285,-0.0439 0.401781,-0.041 0.518881,0.006 0.117099,0.0474 -0.02059,0.0833 -0.305973,0.0797 -0.285384,-0.004 -0.381193,-0.0423 -0.212908,-0.0861 z m 27.312212,-0.01 c 2.537963,-0.0269 6.740896,-0.027 9.339851,-5e-5 2.598955,0.0269 0.52244,0.049 -4.614478,0.049 -5.136918,3e-5 -7.263335,-0.022 -4.725373,-0.0489 z"
         id="path13" /><path
         style="fill:#cccccc;stroke-width:0.17296"
         d="m 37.778014,341.85588 c 0.0083,-0.20149 0.04928,-0.24247 0.104496,-0.1045 0.04996,0.12486 0.04382,0.27404 -0.01365,0.33151 -0.05747,0.0575 -0.09835,-0.0447 -0.09084,-0.22701 z m 48.047218,-7.985 c -0.21514,-0.27432 -0.209022,-0.28044 0.0653,-0.0653 0.288109,0.22595 0.379731,0.36798 0.237379,0.36798 -0.03592,0 -0.172123,-0.1362 -0.302681,-0.30268 z m -1.291572,-1.2972 -0.329488,-0.38916 0.389161,0.32949 c 0.214038,0.18121 0.38916,0.35634 0.38916,0.38916 0,0.13841 -0.139197,0.0362 -0.448833,-0.32949 z m -1.383682,-1.38368 -0.329487,-0.38916 0.38916,0.32949 c 0.214039,0.18121 0.389161,0.35633 0.389161,0.38916 0,0.13841 -0.139198,0.0362 -0.448834,-0.32949 z m -1.383682,-1.38368 -0.329487,-0.38916 0.389161,0.32948 c 0.365715,0.30964 0.467899,0.44884 0.329487,0.44884 -0.03282,0 -0.207943,-0.17513 -0.389161,-0.38916 z m -35.959288,-0.6486 c 0.17218,-0.19026 0.351971,-0.34592 0.399535,-0.34592 0.04756,0 -0.0544,0.15566 -0.226575,0.34592 -0.17218,0.19025 -0.35197,0.34592 -0.399534,0.34592 -0.04756,0 0.05439,-0.15567 0.226574,-0.34592 z m 34.575607,-0.73508 -0.329487,-0.38917 0.38916,0.32949 c 0.365715,0.30964 0.467899,0.44884 0.329487,0.44884 -0.03282,0 -0.207942,-0.17513 -0.38916,-0.38916 z M 47.10421,327.88169 c 0,-0.0359 0.136206,-0.17212 0.30268,-0.30268 0.274325,-0.21514 0.280443,-0.20902 0.0653,0.0653 -0.22595,0.28811 -0.367983,0.37973 -0.367983,0.23738 z m 1.210721,-1.21072 c 0,-0.0359 0.136206,-0.17212 0.30268,-0.30268 0.274326,-0.21514 0.280443,-0.20902 0.0653,0.0653 -0.22595,0.28811 -0.367983,0.37973 -0.367983,0.23738 z m 1.643122,-1.6643 c 0.17218,-0.19026 0.35197,-0.34592 0.399535,-0.34592 0.04756,0 -0.05439,0.15566 -0.226575,0.34592 -0.17218,0.19026 -0.35197,0.34592 -0.399535,0.34592 -0.04756,0 0.05439,-0.15566 0.226575,-0.34592 z m 1.297201,-1.27602 c 0,-0.0359 0.136207,-0.17212 0.302681,-0.30268 0.274325,-0.21514 0.280443,-0.20903 0.0653,0.0653 -0.22595,0.28811 -0.367984,0.37973 -0.367984,0.23738 z m 0.07005,-24.36533 -0.329488,-0.38916 0.389161,0.32949 c 0.365714,0.30964 0.467898,0.44883 0.329487,0.44883 -0.03282,0 -0.207943,-0.17512 -0.38916,-0.38916 z m -1.383682,-1.38368 -0.329487,-0.38916 0.38916,0.32949 c 0.214038,0.18121 0.38916,0.35634 0.38916,0.38916 0,0.13841 -0.139196,0.0362 -0.448833,-0.32949 z m -1.383682,-1.38368 -0.329487,-0.38916 0.38916,0.32949 c 0.365714,0.30963 0.467899,0.44883 0.329488,0.44883 -0.03282,0 -0.207943,-0.17512 -0.389161,-0.38916 z m -1.383681,-1.38368 -0.329488,-0.38916 0.389161,0.32948 c 0.365714,0.30964 0.467899,0.44884 0.329487,0.44884 -0.03282,0 -0.207943,-0.17513 -0.38916,-0.38916 z m 33.224791,-0.6486 c 0.17218,-0.19026 0.35197,-0.34592 0.399534,-0.34592 0.04756,0 -0.05439,0.15566 -0.226574,0.34592 -0.172179,0.19025 -0.351969,0.34592 -0.399533,0.34592 -0.04756,0 0.05439,-0.15567 0.226573,-0.34592 z m -34.608473,-0.73508 -0.329487,-0.38917 0.38916,0.32949 c 0.365714,0.30964 0.467899,0.44884 0.329488,0.44884 -0.03282,0 -0.207944,-0.17513 -0.389161,-0.38916 z m 35.905675,-0.54095 c 0,-0.0359 0.136206,-0.17212 0.30268,-0.30268 0.274325,-0.21514 0.280442,-0.20902 0.0653,0.0653 -0.22595,0.28811 -0.367982,0.37973 -0.367982,0.23738 z m 1.470161,-1.49134 c 0.17218,-0.19025 0.35197,-0.34592 0.399534,-0.34592 0.04756,0 -0.05439,0.15567 -0.226574,0.34592 -0.172179,0.19026 -0.351969,0.34592 -0.399533,0.34592 -0.04756,0 0.05439,-0.15566 0.226573,-0.34592 z m 1.383682,-1.38368 c 0.172179,-0.19026 0.35197,-0.34592 0.399534,-0.34592 0.04756,0 -0.05439,0.15566 -0.226574,0.34592 -0.172179,0.19026 -0.35197,0.34592 -0.399534,0.34592 -0.04756,0 0.05439,-0.15566 0.226574,-0.34592 z m 1.124241,-1.10306 c 0,-0.0359 0.136206,-0.17212 0.302681,-0.30268 0.274324,-0.21514 0.280442,-0.20903 0.0653,0.0653 -0.22595,0.28811 -0.367983,0.37973 -0.367983,0.23738 z"
         id="path12" /><path
         style="fill:#cccccc;stroke-width:0.17296"
         d="m 50.736374,334.28122 c 0,-0.0359 0.136206,-0.17212 0.30268,-0.30268 0.274325,-0.21514 0.280443,-0.20902 0.0653,0.0653 -0.22595,0.28811 -0.367983,0.37973 -0.367983,0.23738 z m 0.691841,-0.67411 c 0,-0.0262 0.603198,-0.62936 1.340441,-1.34044 l 1.340442,-1.29287 -1.292873,1.34044 c -1.200791,1.24497 -1.38801,1.41936 -1.38801,1.29287 z m 3.286243,-3.32515 c 0.322707,-0.33295 0.625655,-0.60536 0.673219,-0.60536 0.04756,0 -0.177552,0.27241 -0.500258,0.60536 -0.322707,0.33295 -0.625655,0.60536 -0.673219,0.60536 -0.04756,0 0.177552,-0.27241 0.500258,-0.60536 z m 1.383682,-1.38368 c 0.322706,-0.33295 0.625655,-0.60537 0.673219,-0.60537 0.04756,0 -0.177553,0.27242 -0.500259,0.60537 -0.322706,0.33294 -0.625655,0.60536 -0.673219,0.60536 -0.04756,0 0.177553,-0.27242 0.500259,-0.60536 z m 34.063849,-0.73509 -0.59605,-0.6486 0.6486,0.59605 c 0.356731,0.32783 0.648601,0.6197 0.648601,0.64861 0,0.13207 -0.146362,0.008 -0.701151,-0.59606 z m -32.680167,-0.6486 c 0.322706,-0.33294 0.625654,-0.60536 0.673218,-0.60536 0.04756,0 -0.177552,0.27242 -0.500258,0.60536 -0.322706,0.33295 -0.625655,0.60536 -0.673219,0.60536 -0.04756,0 0.177552,-0.27241 0.500259,-0.60536 z m 31.296485,-0.73508 -0.59605,-0.6486 0.648601,0.59605 c 0.35673,0.32783 0.648601,0.6197 0.648601,0.6486 0,0.13208 -0.146363,0.008 -0.701152,-0.59605 z m -39.944495,-0.62742 c 0,-0.0359 0.136206,-0.17212 0.30268,-0.30268 0.274325,-0.21514 0.280443,-0.20902 0.0653,0.0653 -0.22595,0.28811 -0.367983,0.37973 -0.367983,0.23738 z m 38.560814,-0.75626 -0.596051,-0.6486 0.648601,0.59605 c 0.356731,0.32783 0.648601,0.6197 0.648601,0.6486 0,0.13208 -0.146362,0.008 -0.701151,-0.59605 z m -1.383682,-1.38368 -0.59605,-0.6486 0.648601,0.59605 c 0.35673,0.32783 0.6486,0.6197 0.6486,0.6486 0,0.13208 -0.146361,0.008 -0.701151,-0.59605 z m -1.378246,-1.34444 c -0.366926,-0.37857 -0.690933,-0.57121 -0.85549,-0.50863 -0.214147,0.0814 -0.222885,0.0584 -0.04562,-0.12013 0.177575,-0.17887 0.357921,-0.0822 0.948738,0.50863 0.401217,0.40122 0.687523,0.72949 0.636237,0.72949 -0.05129,0 -0.359023,-0.27421 -0.683861,-0.60936 z m -31.993762,-0.34192 c 0.22342,-0.23782 0.445135,-0.4324 0.492699,-0.4324 0.04756,0 -0.09632,0.19458 -0.319739,0.4324 -0.223421,0.23782 -0.445135,0.4324 -0.492699,0.4324 -0.04756,0 0.09632,-0.19458 0.319739,-0.4324 z m -0.09736,-21.74975 -0.508,-0.56212 0.562121,0.508 c 0.523975,0.47353 0.641622,0.61624 0.508,0.61624 -0.02977,0 -0.282721,-0.25295 -0.562121,-0.56212 z m 32.267958,-0.38916 c 0.516706,-0.5232 0.978381,-0.95128 1.025945,-0.95128 0.04756,0 -0.336279,0.42808 -0.852985,0.95128 -0.516705,0.52321 -0.97838,0.95128 -1.025944,0.95128 -0.04756,0 0.336279,-0.42807 0.852984,-0.95128 z m -2.351396,-0.47564 -0.329487,-0.38916 0.389161,0.32949 c 0.214038,0.18122 0.38916,0.35634 0.38916,0.38916 0,0.13841 -0.139197,0.0362 -0.448834,-0.32949 z m 3.562118,-0.69617 c 0,-0.0262 0.603198,-0.62936 1.340441,-1.34044 l 1.340442,-1.29287 -1.292873,1.34044 c -1.200792,1.24497 -1.38801,1.41936 -1.38801,1.29287 z m -4.945799,-0.68751 -0.329488,-0.38916 0.389161,0.32949 c 0.365715,0.30963 0.467899,0.44883 0.329487,0.44883 -0.03282,0 -0.207943,-0.17512 -0.38916,-0.38916 z m -31.824677,-1.03776 -0.329487,-0.38916 0.38916,0.32949 c 0.365714,0.30963 0.467899,0.44883 0.329488,0.44883 -0.03282,0 -0.207944,-0.17512 -0.389161,-0.38916 z m 30.694807,-0.0865 c -0.215141,-0.27433 -0.209023,-0.28044 0.0653,-0.0653 0.166474,0.13056 0.30268,0.26676 0.30268,0.30268 0,0.14235 -0.142032,0.0507 -0.367982,-0.23738 z m 8.843032,-0.95561 c 0,-0.0262 0.603198,-0.62936 1.340441,-1.34044 l 1.340442,-1.29288 -1.292872,1.34045 c -1.200792,1.24497 -1.388011,1.41935 -1.388011,1.29287 z m -31.230197,-0.68751 -0.508,-0.56212 0.562121,0.508 c 0.309166,0.2794 0.56212,0.53235 0.56212,0.56212 0,0.13362 -0.142714,0.016 -0.616241,-0.508 z m 21.717386,0.12972 c 0.22342,-0.23782 0.445135,-0.4324 0.492699,-0.4324 0.04756,0 -0.09632,0.19458 -0.319739,0.4324 -0.22342,0.23782 -0.445135,0.4324 -0.492699,0.4324 -0.04756,0 0.09632,-0.19458 0.319739,-0.4324 z m -22.679848,-1.081 c -0.215141,-0.27433 -0.209023,-0.28045 0.0653,-0.0653 0.288108,0.22595 0.37973,0.36799 0.237378,0.36799 -0.03592,0 -0.172122,-0.13621 -0.30268,-0.30268 z m -1.025011,-1.03777 -0.596049,-0.6486 0.6486,0.59605 c 0.603704,0.55479 0.728126,0.70116 0.59605,0.70116 -0.0289,0 -0.320773,-0.29187 -0.648601,-0.64861 z m -1.383681,-1.38368 -0.59605,-0.6486 0.648601,0.59605 c 0.603703,0.55479 0.728125,0.70115 0.59605,0.70115 -0.0289,0 -0.320774,-0.29187 -0.648601,-0.6486 z m -1.050512,-1.03776 c -0.215141,-0.27432 -0.209023,-0.28044 0.0653,-0.0653 0.288108,0.22595 0.37973,0.36798 0.237378,0.36798 -0.03592,0 -0.172122,-0.1362 -0.30268,-0.30268 z m -0.691842,-0.69184 c -0.21514,-0.27432 -0.209022,-0.28044 0.0653,-0.0653 0.288108,0.22595 0.37973,0.36798 0.237378,0.36798 -0.03592,0 -0.172122,-0.1362 -0.302681,-0.30268 z m -1.025009,-1.03776 -0.59605,-0.6486 0.648601,0.59605 c 0.35673,0.32783 0.6486,0.6197 0.6486,0.6486 0,0.13208 -0.146362,0.008 -0.701151,-0.59605 z"
         id="path11" /><path
         style="fill:#cccccc;stroke-width:0.17296"
         d="m 37.937319,332.05495 v -10.07478 l 3.749134,3.76173 c 2.062023,2.06896 3.793152,3.76174 3.846953,3.76174 0.0538,0 1.810762,-1.7091 3.904355,-3.79799 l 3.806536,-3.79798 2.454044,2.46964 2.454043,2.46965 -3.794485,3.79155 c -2.086967,2.08535 -3.794485,3.836 -3.794485,3.89034 0,0.0543 1.691915,1.78676 3.759811,3.84984 l 3.75981,3.75104 H 48.010177 37.937319 Z m 44.839932,6.32004 c 2.069036,-2.06391 3.761884,-3.79455 3.761884,-3.84586 0,-0.0513 -1.71471,-1.80929 -3.810467,-3.9066 l -3.810467,-3.81329 2.413692,-2.37145 c 1.32753,-1.30429 2.478636,-2.37144 2.558014,-2.37144 0.07938,0 1.816524,1.67356 3.860327,3.71902 2.043801,2.04546 3.778677,3.69813 3.855279,3.6726 0.0766,-0.0255 1.808633,-1.71856 3.848961,-3.76227 l 3.709687,-3.71583 5.19e-4,10.07493 5.19e-4,10.07493 -10.074932,-10e-4 -10.074932,-0.001 z M 49.419303,297.31315 c -2.080674,-2.08228 -3.850186,-3.76359 -3.932249,-3.73624 -0.08206,0.0274 -1.814325,1.71684 -3.849469,3.75441 l -3.700266,3.70467 V 290.9689 280.90182 h 10.066887 10.066888 l -3.75384,3.74509 c -2.064612,2.0598 -3.75384,3.79093 -3.75384,3.84695 0,0.056 1.706399,1.81481 3.792,3.9084 l 3.792,3.80654 -2.472534,2.44516 -2.472535,2.44517 z m 31.995789,1.31114 -2.44316,-2.46145 3.783601,-3.78067 c 2.080981,-2.07937 3.783602,-3.82436 3.783602,-3.87775 0,-0.0534 -1.692848,-1.7858 -3.761884,-3.84978 l -3.761885,-3.75269 10.074932,-7e-5 10.074932,-6e-5 v 10.07346 10.07345 l -3.80514,-3.80219 -3.805142,-3.80219 -3.848347,3.8207 -3.848349,3.82069 z"
         id="path10" /></g><path
       style="fill:#cccccc;stroke-width:0.0986442"
       d="m 88.570036,282.64578 c 1.186668,1.18759 2.195871,2.14649 2.242678,2.13089 0.04682,-0.0156 1.03476,-0.97917 2.195467,-2.14125 l 2.110367,-2.11288 v 5.74155 5.74156 h -5.741439 -5.741444 l 2.140926,-2.13594 c 1.177508,-1.17476 2.140925,-2.16208 2.140925,-2.19403 0,-0.0319 -0.97321,-1.03504 -2.162689,-2.22907 l -2.162689,-2.17099 1.410156,-1.39454 1.410163,-1.39456 z"
       id="path10-7"
       sodipodi:nodetypes="ssscccccssscccs"
       inkscape:export-filename="low.png"
       inkscape:export-xdpi="96"
       inkscape:export-ydpi="96" /><path
       style="fill:#cccccc;stroke-width:0.0986442"
       d="m 88.615383,312.8264 c 1.186667,-1.18758 2.195871,-2.14648 2.242678,-2.13088 0.04682,0.0156 1.03476,0.97916 2.195466,2.14125 l 2.110368,2.11288 v -5.74156 -5.74155 h -5.741439 -5.741444 l 2.140926,2.13593 c 1.177508,1.17477 2.140925,2.16208 2.140925,2.19403 0,0.0319 -0.97321,1.03504 -2.162689,2.22908 l -2.16269,2.17098 1.410157,1.39455 1.410163,1.39455 z"
       id="path10-7-3"
       sodipodi:nodetypes="ssscccccssscccs" /><path
       style="fill:#cccccc;stroke-width:0.0986442"
       d="m 113.09055,282.66206 c -1.18667,1.18759 -2.19587,2.14649 -2.24268,2.13089 -0.0468,-0.0156 -1.03476,-0.97916 -2.19547,-2.14125 l -2.11036,-2.11288 v 5.74156 5.74155 h 5.74144 5.74144 l -2.14093,-2.13594 c -1.1775,-1.17476 -2.14092,-2.16208 -2.14092,-2.19402 0,-0.0319 0.97321,-1.03504 2.16269,-2.22908 l 2.16269,-2.17098 -1.41016,-1.39455 -1.41016,-1.39455 z"
       id="path10-7-32"
       sodipodi:nodetypes="ssscccccssscccs" /><path
       style="fill:#cccccc;stroke-width:0.0986442"
       d="m 113.01241,313.12498 c -1.18667,-1.18759 -2.19587,-2.14649 -2.24268,-2.13089 -0.0468,0.0156 -1.03476,0.97916 -2.19547,2.14125 l -2.11036,2.11288 v -5.74156 -5.74155 h 5.74143 5.74145 l -2.14093,2.13594 c -1.1775,1.17476 -2.14092,2.16208 -2.14092,2.19402 0,0.0319 0.97321,1.03504 2.16269,2.22908 l 2.16269,2.17098 -1.41016,1.39455 -1.41016,1.39455 z"
       id="path10-7-3-0"
       sodipodi:nodetypes="ssscccccssscccs" /><rect
       style="fill:none;fill-opacity:1;stroke-width:0.536695;stroke-dasharray:none;stroke-opacity:0.410648"
       id="rect23-2"
       width="34.842949"
       height="34.842949"
       x="125.47569"
       y="280.98978"
       ry="1.7589955"
       inkscape:export-filename="rec.png"
       inkscape:export-xdpi="96"
       inkscape:export-ydpi="96" /><circle
       style="opacity:1;fill:#cccccc;fill-opacity:1;stroke-width:0.447981;stroke-dasharray:none;stroke-opacity:0.410648"
       id="path23"
       cx="142.18312"
       cy="298.60736"
       r="10.076204" /><rect
       style="fill:none;fill-opacity:1;stroke-width:0.536695;stroke-dasharray:none;stroke-opacity:0.410648"
       id="rect23-2-4"
       width="34.842949"
       height="34.842949"
       x="173.16707"
       y="280.2218"
       ry="1.7589955"
       inkscape:export-filename="recording.png"
       inkscape:export-xdpi="96"
       inkscape:export-ydpi="96" /><circle
       style="fill:#ff0000;fill-opacity:1;stroke-width:0.447981;stroke-dasharray:none;stroke-opacity:0.410648"
       id="path23-3"
       cx="189.8745"
       cy="297.83939"
       r="10.076204" /></g></svg>
