<?xml version="1.0" encoding="UTF-8" standalone="no"?>
<!-- Created with Inkscape (http://www.inkscape.org/) -->

<svg
   version="1.1"
   id="svg1"
   width="651"
   height="650"
   viewBox="0 0 651 650"
   sodipodi:docname="template.svg"
   inkscape:version="1.4.1 (93de688d07, 2025-03-30)"
   inkscape:export-filename="not_image.png"
   inkscape:export-xdpi="96"
   inkscape:export-ydpi="96"
   xml:space="preserve"
   xmlns:inkscape="http://www.inkscape.org/namespaces/inkscape"
   xmlns:sodipodi="http://sodipodi.sourceforge.net/DTD/sodipodi-0.dtd"
   xmlns="http://www.w3.org/2000/svg"
   xmlns:svg="http://www.w3.org/2000/svg"><defs
     id="defs1" /><sodipodi:namedview
     id="namedview1"
     pagecolor="#ffffff"
     bordercolor="#000000"
     borderopacity="0.25"
     inkscape:showpageshadow="2"
     inkscape:pageopacity="0.0"
     inkscape:pagecheckerboard="0"
     inkscape:deskcolor="#d1d1d1"
     inkscape:zoom="5.0851037"
     inkscape:cx="199.60262"
     inkscape:cy="290.84953"
     inkscape:window-width="2505"
     inkscape:window-height="1012"
     inkscape:window-x="0"
     inkscape:window-y="0"
     inkscape:window-maximized="1"
     inkscape:current-layer="g1" /><g
     inkscape:groupmode="layer"
     inkscape:label="Image"
     id="g1"><g
       id="g2"
       transform="matrix(0.5045806,0,0,0.5045806,-83.450143,-68.412888)"
       style="stroke-width:0.999894;stroke-dasharray:none"
       inkscape:export-filename="logo.png"
       inkscape:export-xdpi="96"
       inkscape:export-ydpi="96"
       inkscape:label="logo"><circle
         style="opacity:1;fill:#e10000;fill-opacity:1;stroke-width:0.999894;stroke-dasharray:none;stroke-opacity:0.410648"
         id="path1"
         cx="275.50272"
         cy="253.4903"
         r="77.391182" /><g
         id="g9"
         transform="matrix(0.41701792,0,0,0.41701792,139.35723,121.71746)"
         style="fill:#9dff80;fill-opacity:1;stroke-width:2.39772;stroke-dasharray:none"><path
           style="display:inline;fill:#9dff80;fill-opacity:1;stroke-width:2.39772;stroke-dasharray:none"
           d="m 428.84135,425.41452 c -2.74184,-0.66031 -5.05567,-2.42864 -6.59305,-5.0387 -1.205,-2.04578 -1.2413,-3.22364 -1.2413,-40.27741 v -38.17 l 1.45901,-2.34673 c 2.4819,-3.99201 5.06937,-4.85755 13.91461,-4.65459 l 7.59045,0.17416 v 45.30749 45.30748 l -6.51683,0.10154 c -3.58426,0.0558 -7.46006,-0.12561 -8.61289,-0.40324 z m -71.31337,-29.47073 c -3.62937,-1.13332 -6.72204,-3.62661 -8.27549,-6.67162 -0.71458,-1.40069 -3.34242,-8.15735 -5.83964,-15.01482 -2.49723,-6.85747 -4.73048,-12.9508 -4.96277,-13.54075 -0.23229,-0.58994 -3.75319,-3.21307 -7.82422,-5.82918 -4.07103,-2.6161 -7.24967,-4.90875 -7.06365,-5.09477 0.18602,-0.18602 10.87584,-4.13887 23.75516,-8.78411 15.92806,-5.74484 23.4794,-8.19776 23.61223,-7.67003 0.10741,0.42672 -0.80029,3.85549 -2.01711,7.61949 -1.21683,3.764 -2.21241,7.49248 -2.21241,8.2855 0,0.79302 2.20583,7.47774 4.90185,14.85494 2.69601,7.37721 5.09281,14.54344 5.32621,15.92496 1.09322,6.47072 -3.73363,13.91547 -10.28327,15.8605 -3.89094,1.15548 -5.57296,1.16653 -9.11689,0.0599 z m 7.45053,-6.25939 c 2.51305,-0.59911 5.85222,-4.62115 6.36721,-7.66931 0.92482,-5.47399 -3.92401,-11.22643 -9.46296,-11.22643 -7.38057,0 -12.19596,7.45243 -9.07079,14.03822 1.57451,3.31803 6.52262,6.15487 9.54356,5.47149 0.51204,-0.11583 1.69238,-0.39212 2.62298,-0.61397 z m -5.42536,-8.37447 c -0.8016,-2.52561 2.6818,-4.28776 3.96022,-2.00336 0.8497,1.51834 -0.25982,3.27444 -2.06883,3.27444 -0.95449,0 -1.6326,-0.45571 -1.89139,-1.27108 z m 22.21378,12.65776 c -0.58055,-0.23512 -0.54978,-0.62813 0.13042,-1.66626 0.48959,-0.74721 1.34716,-3.1424 1.90572,-5.32264 1.22051,-4.76412 0.8294,-9.10257 -1.3403,-14.86757 -0.81825,-2.17412 -1.48772,-4.33864 -1.48772,-4.81004 0,-0.70703 2.82509,-0.85708 16.13691,-0.85708 h 16.13691 v 13.96464 13.96463 l -15.3611,-0.049 c -8.4486,-0.0269 -15.70298,-0.18745 -16.12084,-0.35668 z M 245.7798,365.52428 c -9.50477,-2.13923 -20.10695,-10.97432 -27.31887,-22.76557 -13.46213,-22.01014 -14.56947,-51.00599 -2.474,-64.78196 1.0371,-1.18119 2.34546,-2.13816 2.90747,-2.1266 0.56202,0.0116 2.81912,1.45582 5.01578,3.20947 l 3.99392,3.18846 -1.48568,0.97992 c -5.11651,3.37473 -8.17726,8.58406 -9.32768,15.87553 -1.87134,11.86073 2.82221,29.55075 11.05839,41.67905 3.20878,4.72514 9.71539,10.80066 13.56047,12.66203 3.57481,1.73054 9.12164,2.27009 12.35778,1.20207 5.26866,-1.73882 9.75321,-8.40249 10.72611,-15.93814 0.34468,-2.66968 0.7031,-3.56631 1.37896,-3.44962 0.50228,0.0867 2.51917,0.49589 4.48197,0.90928 3.42287,0.72091 3.56874,0.83091 3.56874,2.69115 0,1.06674 -0.55172,4.09675 -1.22606,6.73337 -3.86304,15.10436 -14.39544,22.81736 -27.2173,19.93156 z m 31.96769,-10.90704 c 1.52613,-3.77831 3.33827,-10.65335 4.32398,-16.40465 l 0.53048,-3.09517 58.80224,-21.3732 c 32.34123,-11.75525 58.98949,-21.18594 59.21835,-20.95708 0.6457,0.6457 -2.07034,10.86237 -3.86029,14.52091 -2.23381,4.56575 -7.15071,9.74167 -11.01435,11.59459 -3.03468,1.45538 -108.07152,39.47301 -109.05781,39.47301 -0.25338,0 0.22246,-1.69129 1.0574,-3.75841 z m -33.10038,-8.06962 c -11.85986,-5.87059 -22.86396,-31.33002 -20.08936,-46.47937 1.33589,-7.29398 3.87506,-10.58481 8.16713,-10.58481 2.01674,0 2.5981,0.38482 4.8453,3.20718 4.00602,5.03135 6.77356,9.95085 11.88271,21.12234 2.60714,5.70068 5.6162,11.72993 6.68681,13.39832 2.1143,3.29485 2.30027,4.8176 1.2694,10.39406 -1.70082,9.20062 -6.06391,12.25782 -12.76199,8.94228 z m 2.78476,-15.88123 c 4.72238,-3.05592 4.07479,-14.49731 -1.18123,-20.86959 -3.4183,-4.14427 -8.12091,-5.47649 -11.50484,-3.25926 -5.15619,3.37847 -4.17623,15.37901 1.78384,21.84493 3.58414,3.88833 7.23954,4.6541 10.90223,2.28392 z m -5.61402,-7.46195 c -1.60795,-1.78926 -2.97176,-5.47914 -2.97176,-8.04026 0,-2.23513 0.0284,-2.26272 1.21899,-1.18523 1.6755,1.5163 3.26092,5.9166 3.01707,8.37382 -0.19547,1.96982 -0.23533,1.99667 -1.2643,0.85167 z m 27.44011,4.82485 c -4.24645,-1.50436 -7.78683,-5.21764 -9.87111,-10.35315 -2.67333,-6.58691 -9.87702,-20.96307 -12.49183,-24.92953 -3.5025,-5.31302 -13.98185,-16.1511 -20.0045,-20.6893 -5.23149,-3.94205 -12.60361,-7.95395 -17.07976,-9.29479 -1.46173,-0.43786 -2.43925,-1.00502 -2.17228,-1.26035 0.26698,-0.25533 33.16266,-12.41955 73.10151,-27.03161 l 72.61611,-26.56738 7.75813,1.4e-4 c 7.21747,1.3e-4 8.08862,0.13302 12.50043,1.90678 9.95436,4.00214 19.88805,12.45712 28.00016,23.83211 4.7556,6.6684 12.29464,21.19762 15.29849,29.48318 3.33442,9.1974 2.47864,13.31493 -3.34924,16.11455 -6.78301,3.25846 -134.7537,49.42497 -137.78928,49.70865 -2.12446,0.19854 -4.17992,-0.0914 -6.51683,-0.9193 z m -73.13994,-19.77117 c -10.08677,-16.32478 -14.14818,-28.58059 -11.64408,-35.13749 1.62454,-4.2538 2.64476,-4.84955 8.88795,-5.19005 5.56716,-0.30363 11.32439,0.62805 16.02973,2.59407 l 2.20518,0.92138 -2.49938,3.16196 c -6.11523,7.73634 -8.90586,17.39304 -8.91724,30.8572 -0.004,4.86435 -0.0785,8.84427 -0.16531,8.84427 -0.0868,0 -1.84039,-2.7231 -3.89685,-6.05134 z"
           id="path9" /></g></g><g
       id="g16"
       inkscape:export-filename="full.png"
       inkscape:export-xdpi="96"
       inkscape:export-ydpi="96"
       transform="matrix(0.57032949,0,0,0.57032949,16.231719,120.40304)"
       inkscape:label="full"><rect
         style="opacity:1;fill:#cccccc;fill-opacity:1;stroke-width:0.536695;stroke-dasharray:none;stroke-opacity:0.410648"
         id="rect23"
         width="34.842949"
         height="34.842949"
         x="38.089806"
         y="280.87955"
         ry="1.7589955"
         inkscape:export-filename="full.png"
         inkscape:export-xdpi="96"
         inkscape:export-ydpi="96"
         transform="matrix(1.7533724,0,0,1.7533724,-28.460248,-211.11137)" /><path
         style="fill:#333333;fill-opacity:1;stroke-width:0.139814"
         d="m 57.436435,327.05158 c 1.699188,-1.72176 3.118323,-3.11228 3.15363,-3.09007 0.03532,0.0222 -1.354933,1.43092 -3.089432,3.13045 l -3.153631,3.09008 z m 22.764606,0.005 c -1.695837,-1.68063 -3.054629,-3.07368 -3.019541,-3.09568 0.03509,-0.0221 1.453171,1.35307 3.151291,3.05569 1.69812,1.70262 3.056914,3.09567 3.01954,3.09567 -0.03738,0 -1.455454,-1.37506 -3.15129,-3.05568 z m -26.981144,-4.17916 c 1.698726,-1.68349 3.120205,-3.06089 3.158843,-3.06089 0.03863,0 -1.319618,1.3774 -3.018343,3.06089 -1.698726,1.6835 -3.120204,3.0609 -3.15884,3.0609 -0.03863,0 1.319616,-1.3774 3.01834,-3.0609 z m 33.574082,2.33046 -0.697215,-0.73045 0.737622,0.69043 c 0.685411,0.64157 0.802054,0.77046 0.697215,0.77046 -0.02222,0 -0.354153,-0.32871 -0.737622,-0.73044 z m -2.455749,-2.43481 -1.613452,-1.63478 1.650867,1.59773 c 0.907978,0.87876 1.650869,1.61442 1.650869,1.63479 0,0.10024 -0.189617,-0.0792 -1.688284,-1.59774 z m -2.413145,-2.33366 c -0.362558,-0.34258 -0.612813,-0.62288 -0.556126,-0.62288 0.05669,0 0.382293,0.28175 0.723572,0.62609 0.799922,0.80713 0.687884,0.80498 -0.167446,-0.003 z M 53.2187,300.3036 l -3.089788,-3.09567 3.155991,3.06089 c 1.735797,1.68349 3.184698,3.07654 3.219779,3.09567 0.03508,0.0192 0.0053,0.0347 -0.0662,0.0347 -0.0715,0 -1.520393,-1.39305 -3.219779,-3.09566 z m 27.947168,2.93505 c -0.06529,-0.10466 -0.03817,-0.12263 0.07781,-0.0518 0.120197,0.0736 1.188744,-0.88019 3.288318,-2.93505 l 3.110262,-3.04403 -3.089791,3.09569 c -1.699383,1.70261 -3.134015,3.09566 -3.188069,3.09566 -0.05405,0 -0.143393,-0.0724 -0.198531,-0.16062 z m -3.930666,-3.89037 c -0.05709,-0.0915 1.195193,-1.42089 3.047169,-3.2348 l 3.1441,-3.0795 -3.073549,3.07998 c -1.79689,1.80064 -3.033411,3.14429 -2.976919,3.2348 0.05314,0.0852 0.06502,0.15483 0.02637,0.15483 -0.03863,0 -0.113871,-0.0699 -0.167183,-0.15531 z m -17.970161,-1.37406 -1.260826,-1.32282 1.324747,1.28163 c 0.728612,0.70491 1.295983,1.30017 1.260827,1.32283 -0.03516,0.0225 -0.631292,-0.55409 -1.324748,-1.28164 z m -3.167013,-3.16631 -1.754134,-1.77393 1.791366,1.73706 c 0.985254,0.95537 1.791369,1.75364 1.791369,1.77393 0,0.0999 -0.19919,-0.0892 -1.828601,-1.73706 z"
         id="path16" /><path
         style="fill:#333333;fill-opacity:1;stroke-width:0.139814"
         d="m 78.158547,335.3299 c 0.262141,-0.26783 0.508233,-0.48696 0.546869,-0.48696 0.03864,0 -0.144229,0.21913 -0.40637,0.48696 -0.262142,0.26783 -0.508234,0.48696 -0.546871,0.48696 -0.03863,0 0.144229,-0.21913 0.406372,-0.48696 z m 1.123994,-1.11305 c 0.262142,-0.26783 0.508233,-0.48696 0.546871,-0.48696 0.03863,0 -0.144229,0.21913 -0.406371,0.48696 -0.262142,0.26784 -0.508234,0.48697 -0.54687,0.48697 -0.03864,0 0.144229,-0.21913 0.40637,-0.48697 z m 1.123995,-1.11305 c 0.262143,-0.26784 0.508235,-0.48696 0.546872,-0.48696 0.03863,0 -0.14423,0.21912 -0.406371,0.48696 -0.262141,0.26782 -0.508234,0.48696 -0.546871,0.48696 -0.03863,0 0.14423,-0.21914 0.40637,-0.48696 z m 1.123996,-1.11305 c 0.262143,-0.26782 0.508234,-0.48698 0.54687,-0.48698 0.03863,0 -0.144229,0.21916 -0.40637,0.48698 -0.262141,0.26782 -0.508233,0.48696 -0.54687,0.48696 -0.03863,0 0.144228,-0.21914 0.40637,-0.48696 z m 0.913247,-0.90436 c 0.139865,-0.15304 0.285913,-0.27826 0.324549,-0.27826 0.03863,0 -0.04419,0.12522 -0.18405,0.27826 -0.139866,0.15304 -0.285913,0.27826 -0.32455,0.27826 -0.03863,0 0.04418,-0.12522 0.184051,-0.27826 z m 6.041475,-5.98266 c 0.139865,-0.15304 0.285914,-0.27826 0.324551,-0.27826 0.03863,0 -0.04418,0.12522 -0.184052,0.27826 -0.139865,0.15305 -0.285913,0.27827 -0.32455,0.27827 -0.03863,0 0.04418,-0.12522 0.184051,-0.27827 z M 89.258,324.33851 c 0.181491,-0.1913 0.361594,-0.34783 0.400232,-0.34783 0.03863,0 -0.07824,0.15653 -0.259731,0.34783 -0.181491,0.19131 -0.361594,0.34783 -0.400232,0.34783 -0.03863,0 0.07824,-0.15652 0.259731,-0.34783 z m -30.911691,-2.53915 -2.035424,-2.05218 2.072368,2.01559 c 1.1398,1.1086 2.072365,2.03207 2.072365,2.0522 0,0.0996 -0.218455,-0.10918 -2.109309,-2.01561 z m 19.25024,1.70437 c 0.181489,-0.19132 0.361593,-0.34785 0.400231,-0.34785 0.03863,0 -0.07824,0.15653 -0.259731,0.34785 -0.181491,0.1913 -0.361593,0.34782 -0.400231,0.34782 -0.03863,0 0.07824,-0.15652 0.259731,-0.34782 z m 12.925947,-0.4174 c 0.262141,-0.26783 0.508233,-0.48697 0.54687,-0.48697 0.03863,0 -0.144231,0.21914 -0.406371,0.48697 -0.262141,0.26783 -0.508233,0.48695 -0.54687,0.48695 -0.03863,0 0.144231,-0.21912 0.406371,-0.48695 z m -11.099455,-1.39132 c 0.731058,-0.72696 1.360807,-1.32173 1.399445,-1.32173 0.03863,0 -0.527889,0.59477 -1.258946,1.32173 -0.731057,0.72697 -1.360806,1.32175 -1.399444,1.32175 -0.03863,0 0.527887,-0.59478 1.258945,-1.32175 z m 12.223451,0.27826 c 0.262139,-0.26782 0.508232,-0.48695 0.54687,-0.48695 0.03863,0 -0.14423,0.21913 -0.406372,0.48695 -0.26214,0.26784 -0.508232,0.48697 -0.54687,0.48697 -0.03863,0 0.144231,-0.21913 0.406372,-0.48697 z m 0.983495,-0.97392 c 0.181491,-0.1913 0.361593,-0.34782 0.400231,-0.34782 0.03863,0 -0.07824,0.15652 -0.259732,0.34782 -0.18149,0.19132 -0.361593,0.34783 -0.400231,0.34783 -0.03863,0 0.07824,-0.15651 0.259732,-0.34783 z M 57.153882,302.56443 c 0.380563,-0.38261 0.723546,-0.69565 0.762184,-0.69565 0.03863,0 -0.241121,0.31304 -0.621684,0.69565 -0.380565,0.38261 -0.723547,0.69566 -0.762184,0.69566 -0.03863,0 0.241119,-0.31305 0.621684,-0.69566 z m 22.056383,-1.28696 -1.824466,-1.8435 1.861617,1.80671 c 1.729287,1.67828 1.925298,1.88028 1.824465,1.88028 -0.02043,0 -0.858161,-0.82958 -1.861616,-1.84349 z m -20.721638,-0.0347 c 0.262141,-0.26783 0.508232,-0.48697 0.54687,-0.48697 0.03863,0 -0.14423,0.21914 -0.406371,0.48697 -0.262141,0.26783 -0.508233,0.48696 -0.546871,0.48696 -0.03863,0 0.144229,-0.21913 0.406372,-0.48696 z m 33.287729,0.10434 -0.340614,-0.38262 0.386374,0.3373 c 0.361124,0.31526 0.450804,0.42793 0.340613,0.42793 -0.02516,0 -0.199034,-0.17218 -0.386373,-0.38261 z m -32.029107,-1.32177 c 0.582226,-0.61429 0.708369,-0.72475 0.708369,-0.62028 0,0.0223 -0.300318,0.31972 -0.667372,0.66088 l -0.667372,0.62028 z m 28.657121,-2.0174 -0.340614,-0.38261 0.386373,0.33729 c 0.361123,0.31525 0.450805,0.42793 0.340613,0.42793 -0.02516,0 -0.199032,-0.17219 -0.386372,-0.38261 z m -5.692941,-5.63483 -0.26765,-0.31304 0.316123,0.26502 c 0.297079,0.24909 0.380086,0.36106 0.26765,0.36106 -0.02666,0 -0.168916,-0.14087 -0.316123,-0.31304 z m -1.198818,-1.18263 c -0.174763,-0.22066 -0.169794,-0.2256 0.05304,-0.0525 0.234038,0.18177 0.308465,0.29603 0.192828,0.29603 -0.02919,0 -0.139819,-0.10957 -0.245874,-0.24348 z m -0.842997,-0.83478 c -0.174763,-0.22068 -0.169794,-0.22559 0.05304,-0.0525 0.13523,0.10497 0.245873,0.2146 0.245873,0.24347 0,0.11452 -0.115376,0.0408 -0.29892,-0.19095 z m -1.257208,-1.25219 -0.340613,-0.3826 0.386373,0.33729 c 0.361124,0.31525 0.450804,0.42792 0.340614,0.42792 -0.02516,0 -0.199034,-0.17217 -0.386374,-0.38261 z m -1.404992,-1.3913 -0.340617,-0.38262 0.386375,0.33731 c 0.361124,0.31525 0.450805,0.42792 0.340614,0.42792 -0.02516,0 -0.199035,-0.17219 -0.386372,-0.38261 z"
         id="path15" /><path
         style="fill:#333333;fill-opacity:1;stroke-width:0.139814"
         d="m 59.886058,335.71251 -0.484185,-0.52174 0.526872,0.47947 c 0.490402,0.44627 0.591473,0.56401 0.484185,0.56401 -0.02348,0 -0.260571,-0.23478 -0.526872,-0.52174 z m -1.123996,-1.11304 -0.484185,-0.52176 0.526873,0.47948 c 0.490402,0.44628 0.591473,0.56401 0.484184,0.56401 -0.02348,0 -0.260571,-0.23478 -0.526872,-0.52173 z m -1.123996,-1.11306 -0.484184,-0.52174 0.526872,0.47947 c 0.490402,0.44629 0.591474,0.56402 0.484186,0.56402 -0.02348,0 -0.260572,-0.23479 -0.526874,-0.52175 z m -1.123994,-1.11305 -0.484186,-0.52175 0.526873,0.47948 c 0.490402,0.44627 0.591473,0.56402 0.484186,0.56402 -0.02348,0 -0.260573,-0.23479 -0.526873,-0.52175 z m -1.123995,-1.11306 -0.484186,-0.52173 0.526873,0.47946 c 0.289779,0.26372 0.526873,0.49849 0.526873,0.52175 0,0.10624 -0.118893,0.006 -0.56956,-0.47948 z m 27.615699,-0.73043 c 0.139865,-0.15305 0.285913,-0.27827 0.324551,-0.27827 0.03863,0 -0.04418,0.12522 -0.184051,0.27827 -0.139866,0.15303 -0.285914,0.27826 -0.324551,0.27826 -0.03863,0 0.04418,-0.12523 0.184051,-0.27826 z m -33.379247,-4.97395 -0.340615,-0.38262 0.386374,0.33729 c 0.361124,0.31526 0.450804,0.42793 0.340613,0.42793 -0.02516,0 -0.199034,-0.17217 -0.386372,-0.3826 z m -0.980426,-0.97393 -0.484184,-0.52175 0.526873,0.47948 c 0.490401,0.44628 0.591474,0.56401 0.484185,0.56401 -0.02348,0 -0.260573,-0.23478 -0.526874,-0.52174 z m -1.123995,-1.11305 -0.484185,-0.52174 0.526873,0.47947 c 0.490402,0.44628 0.591474,0.56401 0.484184,0.56401 -0.02348,0 -0.26057,-0.23479 -0.526872,-0.52174 z m -1.123995,-1.11305 -0.484185,-0.52174 0.526872,0.47947 c 0.490402,0.44627 0.591473,0.56401 0.484185,0.56401 -0.02348,0 -0.26057,-0.23477 -0.526872,-0.52174 z m -1.123997,-1.11306 -0.484183,-0.52173 0.526873,0.47946 c 0.490402,0.44629 0.591472,0.56402 0.484184,0.56402 -0.02348,0 -0.260572,-0.23479 -0.526874,-0.52175 z m -0.986566,-0.97391 -0.340614,-0.38262 0.386373,0.33731 c 0.361125,0.31525 0.450806,0.42792 0.340615,0.42792 -0.02516,0 -0.199034,-0.17218 -0.386374,-0.38261 z m 0.291634,-17.61788 c 0,-0.0288 0.110642,-0.13846 0.245873,-0.24348 0.222841,-0.17307 0.227811,-0.16815 0.05304,0.0525 -0.183543,0.23176 -0.29892,0.30547 -0.29892,0.19095 z m 1.053745,-1.06053 c 0.139866,-0.15304 0.285913,-0.27826 0.324551,-0.27826 0.03863,0 -0.04418,0.12522 -0.18405,0.27826 -0.139867,0.15305 -0.285915,0.27827 -0.324553,0.27827 -0.03863,0 0.04418,-0.12522 0.184052,-0.27827 z m 2.318241,-2.29566 c 0.18149,-0.1913 0.361594,-0.34783 0.400231,-0.34783 0.03863,0 -0.07824,0.15653 -0.259731,0.34783 -0.181492,0.1913 -0.361594,0.34782 -0.400232,0.34782 -0.03863,0 0.07824,-0.15652 0.259732,-0.34782 z m 1.053746,-1.04349 c 0.139866,-0.15305 0.285913,-0.27827 0.32455,-0.27827 0.03863,0 -0.04418,0.12522 -0.184051,0.27827 -0.139866,0.15305 -0.285913,0.27826 -0.324551,0.27826 -0.03863,0 0.04418,-0.12521 0.184052,-0.27826 z m 0.842996,-0.83478 c 0.139866,-0.15306 0.285913,-0.27828 0.324551,-0.27828 0.03863,0 -0.04418,0.12522 -0.184051,0.27828 -0.139867,0.15303 -0.285914,0.27826 -0.324551,0.27826 -0.03863,0 0.04419,-0.12523 0.184051,-0.27826 z m 33.350692,-4.55656 c -0.174763,-0.22068 -0.169794,-0.2256 0.05304,-0.0525 0.13523,0.10497 0.245873,0.21457 0.245873,0.24348 0,0.1145 -0.115376,0.0408 -0.29892,-0.19095 z m -28.433212,-0.31306 c 0.139864,-0.15305 0.285913,-0.27825 0.324551,-0.27825 0.03863,0 -0.04419,0.1252 -0.184052,0.27825 -0.139866,0.15304 -0.285914,0.27828 -0.32455,0.27828 -0.03863,0 0.04418,-0.12524 0.184051,-0.27828 z m 0.983496,-0.97391 c 0.139865,-0.15305 0.285912,-0.27826 0.324549,-0.27826 0.03863,0 -0.04418,0.12521 -0.18405,0.27826 -0.139865,0.15303 -0.285913,0.27826 -0.324552,0.27826 -0.03863,0 0.04419,-0.12523 0.184053,-0.27826 z m 26.185221,0.0348 c -0.174763,-0.22067 -0.169795,-0.2256 0.05304,-0.0525 0.234036,0.18175 0.308462,0.29602 0.192827,0.29602 -0.02919,0 -0.13982,-0.10957 -0.245874,-0.24349 z m -25.061226,-1.14784 c 0.139866,-0.15304 0.285913,-0.27827 0.32455,-0.27827 0.03863,0 -0.04418,0.12523 -0.184051,0.27827 -0.139865,0.15305 -0.285913,0.27826 -0.32455,0.27826 -0.03863,0 0.04419,-0.12521 0.184051,-0.27826 z m 2.247991,-2.22611 c 0.139865,-0.15302 0.285912,-0.27826 0.32455,-0.27826 0.03863,0 -0.04419,0.12524 -0.18405,0.27826 -0.139866,0.15305 -0.285914,0.27827 -0.32455,0.27827 -0.03863,0 0.04418,-0.12522 0.18405,-0.27827 z m 19.441249,0.0347 c -0.174762,-0.22066 -0.169794,-0.22559 0.05304,-0.0525 0.234036,0.18176 0.308463,0.29602 0.192829,0.29602 -0.02919,0 -0.139821,-0.10957 -0.245876,-0.24349 z m -18.528002,-0.92209 c 0,-0.0288 0.110643,-0.13846 0.245874,-0.24348 0.222839,-0.17307 0.227809,-0.16816 0.05304,0.0525 -0.183545,0.23175 -0.298921,0.30547 -0.298921,0.19096 z"
         id="path14" /><path
         style="fill:#333333;fill-opacity:1;stroke-width:0.139814"
         d="m 44.131341,336.27834 c 0.101425,-0.0403 0.222604,-0.0352 0.269292,0.0109 0.04669,0.0463 -0.03629,0.0791 -0.184405,0.073 -0.163675,-0.006 -0.196966,-0.0396 -0.0849,-0.084 z m 4.135952,-0.009 c 2.067098,-0.0218 5.449622,-0.0218 7.51672,0 2.067097,0.0218 0.375835,0.0394 -3.75836,0.0394 -4.134195,0 -5.825457,-0.0178 -3.75836,-0.0394 z m 29.443411,0.009 c 0.101424,-0.0403 0.222604,-0.0352 0.269291,0.0109 0.04668,0.0463 -0.03629,0.0791 -0.184405,0.073 -0.163673,-0.006 -0.196967,-0.0396 -0.08489,-0.084 z m 4.126036,-0.009 c 2.061644,-0.0217 5.475779,-0.0218 7.586969,-4e-5 2.111188,0.0217 0.424389,0.0394 -3.748444,0.0394 -4.172834,2e-5 -5.900168,-0.0178 -3.838525,-0.0393 z m 11.6099,0.009 c 0.101424,-0.0403 0.222605,-0.0352 0.26929,0.0109 0.04668,0.0463 -0.03629,0.0791 -0.184405,0.073 -0.163674,-0.006 -0.196966,-0.0396 -0.0849,-0.084 z m 0.318435,-0.54263 c 0.0067,-0.16208 0.04003,-0.19506 0.08489,-0.084 0.04059,0.10045 0.0356,0.22044 -0.01109,0.26667 -0.04668,0.0463 -0.07989,-0.036 -0.0738,-0.18261 z m -49.822808,-7.50152 c -2.1e-5,-4.20873 0.01784,-5.95057 0.03968,-3.87074 0.02184,2.07982 0.02186,5.52331 3.9e-5,7.65222 -0.02182,2.12892 -0.0397,0.42726 -0.03971,-3.78148 z m 49.877177,-0.20869 c 0,-4.09394 0.01792,-5.76874 0.03982,-3.72176 0.0219,2.04696 0.0219,5.39656 0,7.44351 -0.02189,2.04698 -0.03982,0.37219 -0.03982,-3.72175 z M 43.904077,302.634 c 0.0029,-0.22957 0.03435,-0.30665 0.06997,-0.17126 0.03561,0.13537 0.03328,0.32319 -0.0052,0.41738 -0.03848,0.0942 -0.06764,-0.0166 -0.06476,-0.24612 z m 0.03804,-7.79136 c 2.2e-5,-4.05569 0.01797,-5.69476 0.03988,-3.64242 0.02191,2.05237 0.02189,5.37065 -4.3e-5,7.37398 -0.02193,2.00332 -0.03985,0.32411 -0.03984,-3.73156 z m 49.877254,-0.0695 c 0,-4.01741 0.01796,-5.66091 0.03989,-3.6522 0.02194,2.00871 0.02194,5.29568 0,7.30441 -0.02194,2.00871 -0.03989,0.36521 -0.03989,-3.65221 z m -0.06539,-7.54926 c 0,-0.12193 -0.110643,-0.25033 -0.245875,-0.28532 -0.230432,-0.0596 -0.230155,-0.0646 0.0044,-0.0797 0.25402,-0.0164 0.48939,0.34126 0.329072,0.50002 -0.04818,0.0476 -0.08761,-0.013 -0.08761,-0.13493 z m -45.898243,-0.34637 c 2.149844,-0.0217 5.627205,-0.0216 7.727469,3e-5 2.100265,0.0217 0.341304,0.0393 -3.908804,0.0393 -4.250107,-2e-5 -5.968506,-0.0178 -3.818665,-0.0393 z m 11.79468,0.008 c 0.136702,-0.0352 0.326377,-0.0329 0.421499,0.005 0.09513,0.0382 -0.01672,0.067 -0.248548,0.0642 -0.231823,-0.003 -0.309652,-0.034 -0.172951,-0.0693 z m 22.186319,-0.008 c 2.061644,-0.0217 5.47578,-0.0218 7.586969,-5e-5 2.11119,0.0217 0.42439,0.0394 -3.748443,0.0394 -4.172833,2e-5 -5.900169,-0.0178 -3.838526,-0.0393 z"
         id="path13" /><path
         style="fill:#333333;fill-opacity:1;stroke-width:0.139814"
         d="m 43.887778,336.01396 c 0.0067,-0.16208 0.04003,-0.19503 0.08489,-0.084 0.04058,0.10045 0.0356,0.22045 -0.01109,0.26667 -0.04668,0.0463 -0.07989,-0.036 -0.0738,-0.18261 z m 39.029826,-6.42324 c -0.174761,-0.22065 -0.169793,-0.22559 0.05304,-0.0525 0.234038,0.18175 0.308464,0.29601 0.192829,0.29601 -0.02919,0 -0.13982,-0.10957 -0.245876,-0.24348 z m -1.049172,-1.04348 -0.26765,-0.31305 0.316123,0.26505 c 0.173868,0.14577 0.316125,0.28665 0.316125,0.31306 0,0.11133 -0.113074,0.029 -0.364598,-0.26506 z m -1.123996,-1.11305 -0.267648,-0.31305 0.316122,0.26505 c 0.17387,0.14578 0.316125,0.28664 0.316125,0.31304 0,0.11134 -0.113074,0.0291 -0.364599,-0.26504 z m -1.123995,-1.11306 -0.267651,-0.31303 0.316125,0.26503 c 0.297079,0.24909 0.380085,0.36106 0.26765,0.36106 -0.02666,0 -0.168916,-0.14089 -0.316124,-0.31306 z M 50.40991,325.7994 c 0.139864,-0.15305 0.285913,-0.27827 0.324551,-0.27827 0.03863,0 -0.0442,0.12522 -0.184052,0.27827 -0.139866,0.15304 -0.285914,0.27826 -0.324551,0.27826 -0.03863,0 0.04418,-0.12522 0.184052,-0.27826 z m 28.086536,-0.59131 -0.267649,-0.31305 0.316122,0.26504 c 0.297078,0.24908 0.380086,0.36105 0.267651,0.36105 -0.02666,0 -0.168917,-0.14087 -0.316124,-0.31304 z m -27.03279,-0.43516 c 0,-0.0288 0.110642,-0.13844 0.245873,-0.24347 0.22284,-0.17305 0.227811,-0.16814 0.05303,0.0525 -0.183543,0.23176 -0.29892,0.30546 -0.29892,0.19095 z m 0.983496,-0.97391 c 0,-0.0288 0.110643,-0.13845 0.245872,-0.24347 0.222841,-0.17308 0.227811,-0.16814 0.05304,0.0525 -0.183545,0.23178 -0.298921,0.30548 -0.298921,0.19096 z m 1.334744,-1.33878 c 0.139866,-0.15304 0.285913,-0.27827 0.324551,-0.27827 0.03863,0 -0.04419,0.12523 -0.184052,0.27827 -0.139866,0.15304 -0.285913,0.27827 -0.324551,0.27827 -0.03863,0 0.04418,-0.12523 0.184052,-0.27827 z m 1.053745,-1.02645 c 0,-0.0288 0.110644,-0.13846 0.245875,-0.24347 0.22284,-0.17308 0.22781,-0.16815 0.05304,0.0525 -0.183544,0.23177 -0.298921,0.30548 -0.298921,0.19096 z m 0.0569,-19.59979 -0.26765,-0.31305 0.316124,0.26504 c 0.297077,0.24908 0.380084,0.36104 0.26765,0.36104 -0.02666,0 -0.168916,-0.14085 -0.316124,-0.31303 z m -1.123996,-1.11306 -0.267648,-0.31305 0.316122,0.26505 c 0.173869,0.14577 0.316124,0.28665 0.316124,0.31304 0,0.11134 -0.113072,0.0291 -0.364598,-0.26504 z m -1.123995,-1.11305 -0.267651,-0.31304 0.316124,0.26503 c 0.297078,0.24909 0.380086,0.36106 0.267651,0.36106 -0.02666,0 -0.168916,-0.14087 -0.316124,-0.31305 z m -1.123995,-1.11305 -0.267651,-0.31305 0.316124,0.26505 c 0.297077,0.24906 0.380086,0.36105 0.267651,0.36105 -0.02666,0 -0.168917,-0.14087 -0.316124,-0.31305 z m 26.989238,-0.52175 c 0.139867,-0.15303 0.285913,-0.27825 0.32455,-0.27825 0.03863,0 -0.04419,0.12522 -0.18405,0.27825 -0.139866,0.15304 -0.285913,0.27827 -0.324549,0.27827 -0.03863,0 0.04418,-0.12523 0.184049,-0.27827 z m -28.113234,-0.5913 -0.26765,-0.31306 0.316124,0.26506 c 0.297078,0.24907 0.380085,0.36105 0.267649,0.36105 -0.02666,0 -0.168916,-0.14089 -0.316123,-0.31305 z m 29.16698,-0.43515 c 0,-0.0288 0.110643,-0.13845 0.245874,-0.24348 0.222841,-0.17307 0.22781,-0.16813 0.05303,0.0525 -0.183543,0.23177 -0.298919,0.30547 -0.298919,0.19096 z m 1.194245,-1.19964 c 0.139865,-0.15305 0.285913,-0.27828 0.324551,-0.27828 0.03863,0 -0.04419,0.12523 -0.184052,0.27828 -0.139864,0.15303 -0.285913,0.27825 -0.32455,0.27825 -0.03863,0 0.04418,-0.12522 0.184051,-0.27825 z m 1.123995,-1.11306 c 0.139866,-0.15305 0.285914,-0.27827 0.324551,-0.27827 0.03863,0 -0.04419,0.12522 -0.184051,0.27827 -0.139866,0.15305 -0.285913,0.27826 -0.32455,0.27826 -0.03863,0 0.04418,-0.12521 0.18405,-0.27826 z m 0.913247,-0.88732 c 0,-0.0288 0.110642,-0.13845 0.245874,-0.24347 0.22284,-0.17307 0.22781,-0.16816 0.05304,0.0525 -0.183544,0.23176 -0.298921,0.30546 -0.298921,0.19094 z"
         id="path12" /><path
         style="fill:#333333;fill-opacity:1;stroke-width:0.139814"
         d="m 54.414143,329.92081 c 0,-0.0288 0.110643,-0.13846 0.245874,-0.24348 0.222841,-0.17306 0.22781,-0.16814 0.05304,0.0525 -0.183543,0.23177 -0.298921,0.30547 -0.298921,0.19097 z m 0.561998,-0.54227 c 0,-0.0211 0.489992,-0.50625 1.088871,-1.07826 l 1.08887,-1.04 -1.05023,1.07826 c -0.975429,1.00148 -1.127511,1.14176 -1.127511,1.04 z m 2.669488,-2.67478 c 0.262142,-0.26784 0.508235,-0.48696 0.546872,-0.48696 0.03863,0 -0.14423,0.21912 -0.406372,0.48696 -0.262141,0.26783 -0.508233,0.48694 -0.546871,0.48694 -0.03863,0 0.14423,-0.21911 0.406371,-0.48694 z m 1.123996,-1.11306 c 0.262142,-0.26783 0.508234,-0.48697 0.54687,-0.48697 0.03863,0 -0.144229,0.21914 -0.406371,0.48697 -0.262142,0.26782 -0.508233,0.48696 -0.546869,0.48696 -0.03863,0 0.144229,-0.21914 0.40637,-0.48696 z m 27.670824,-0.59131 -0.484184,-0.52175 0.526871,0.47948 c 0.289782,0.26371 0.526874,0.49849 0.526874,0.52174 0,0.10624 -0.118894,0.006 -0.569561,-0.47947 z m -26.546828,-0.52175 c 0.262142,-0.26782 0.508233,-0.48696 0.54687,-0.48696 0.03863,0 -0.144229,0.21914 -0.40637,0.48696 -0.262142,0.26783 -0.508234,0.48696 -0.546871,0.48696 -0.03863,0 0.144229,-0.21913 0.406371,-0.48696 z m 25.422833,-0.5913 -0.484184,-0.52176 0.526872,0.47949 c 0.28978,0.26369 0.526873,0.49848 0.526873,0.52173 0,0.10625 -0.118894,0.006 -0.569561,-0.47946 z m -32.447803,-0.50471 c 0,-0.0289 0.110642,-0.13846 0.245872,-0.24348 0.222841,-0.17306 0.227811,-0.16814 0.05304,0.0525 -0.183544,0.23176 -0.298921,0.30546 -0.298921,0.19095 z m 31.323808,-0.60835 -0.484186,-0.52174 0.526872,0.47947 c 0.289782,0.26372 0.526874,0.4985 0.526874,0.52174 0,0.10625 -0.118893,0.006 -0.56956,-0.47947 z m -1.123996,-1.11305 -0.484185,-0.52174 0.526873,0.47947 c 0.289781,0.26371 0.526872,0.4985 0.526872,0.52175 0,0.10625 -0.118892,0.006 -0.56956,-0.47948 z m -1.11958,-1.08148 c -0.298062,-0.30453 -0.56126,-0.45948 -0.694935,-0.40915 -0.173954,0.0655 -0.181054,0.047 -0.03706,-0.0967 0.144248,-0.14389 0.290747,-0.0662 0.770681,0.40915 0.325917,0.32274 0.55849,0.5868 0.516829,0.5868 -0.04167,0 -0.291641,-0.22058 -0.555516,-0.49017 z M 55.959637,320.3037 c 0.181489,-0.19131 0.361594,-0.34782 0.40023,-0.34782 0.03863,0 -0.07824,0.15651 -0.259731,0.34782 -0.18149,0.1913 -0.361594,0.34783 -0.40023,0.34783 -0.03863,0 0.07824,-0.15653 0.259731,-0.34783 z m -0.07909,-17.4958 -0.41266,-0.45217 0.456624,0.40865 c 0.425637,0.38091 0.521203,0.49571 0.412659,0.49571 -0.02419,0 -0.22966,-0.20348 -0.456623,-0.45219 z m 26.211982,-0.31304 c 0.419732,-0.42086 0.794761,-0.76521 0.833399,-0.76521 0.03863,0 -0.273168,0.34435 -0.6929,0.76521 -0.41973,0.42088 -0.794759,0.76523 -0.833397,0.76523 -0.03863,0 0.273167,-0.34435 0.692898,-0.76523 z m -1.910092,-0.3826 -0.267649,-0.31305 0.316124,0.26505 c 0.173868,0.14578 0.316124,0.28664 0.316124,0.31304 0,0.11134 -0.113074,0.0291 -0.364599,-0.26504 z m 2.893587,-0.56001 c 0,-0.0211 0.489991,-0.50627 1.088871,-1.07827 l 1.088871,-1.04001 -1.05023,1.07827 c -0.975429,1.00147 -1.127512,1.14176 -1.127512,1.04001 z m -4.017581,-0.55305 -0.26765,-0.31305 0.316123,0.26505 c 0.297078,0.24907 0.380085,0.36105 0.267651,0.36105 -0.02666,0 -0.168918,-0.14087 -0.316124,-0.31305 z m -25.851895,-0.83478 -0.267649,-0.31305 0.316122,0.26505 c 0.297079,0.24907 0.380085,0.36104 0.267651,0.36104 -0.02666,0 -0.168917,-0.14086 -0.316124,-0.31304 z m 24.934076,-0.0695 c -0.174763,-0.22067 -0.169794,-0.22559 0.05304,-0.0525 0.135231,0.10507 0.245874,0.21459 0.245874,0.24348 0,0.1145 -0.115377,0.0408 -0.29892,-0.19094 z m 7.183393,-0.76871 c 0,-0.0211 0.48999,-0.50625 1.088869,-1.07826 l 1.08887,-1.04 -1.050228,1.07826 c -0.97543,1.00148 -1.127511,1.14176 -1.127511,1.04 z m -25.368987,-0.55303 -0.412659,-0.45218 0.456624,0.40863 c 0.251142,0.22476 0.456622,0.42824 0.456622,0.45219 0,0.10749 -0.11593,0.0129 -0.500587,-0.40864 z m 17.641519,0.10434 c 0.181488,-0.19131 0.361592,-0.34784 0.400229,-0.34784 0.03863,0 -0.07824,0.15653 -0.259731,0.34784 -0.18149,0.19131 -0.361593,0.34782 -0.40023,0.34782 -0.03863,0 0.07824,-0.15651 0.259732,-0.34782 z m -18.423347,-0.86957 c -0.174764,-0.22068 -0.169795,-0.2256 0.05304,-0.0525 0.234038,0.18177 0.308464,0.29602 0.192828,0.29602 -0.02919,0 -0.139817,-0.10956 -0.245874,-0.24349 z m -0.83264,-0.8348 -0.484183,-0.52175 0.526872,0.47948 c 0.490402,0.44628 0.591472,0.56402 0.484184,0.56402 -0.02348,0 -0.260571,-0.23478 -0.526873,-0.52175 z m -1.123995,-1.11305 -0.484184,-0.52174 0.526873,0.47946 c 0.490401,0.44628 0.591472,0.56402 0.484185,0.56402 -0.02348,0 -0.260572,-0.23478 -0.526874,-0.52174 z m -0.853355,-0.83479 c -0.174762,-0.22067 -0.169794,-0.22559 0.05304,-0.0525 0.234036,0.18176 0.308462,0.29601 0.192828,0.29601 -0.02919,0 -0.13982,-0.10956 -0.245874,-0.24348 z m -0.561998,-0.55653 c -0.174762,-0.22067 -0.169794,-0.22559 0.05303,-0.0525 0.234037,0.18177 0.308464,0.29602 0.192828,0.29602 -0.02919,0 -0.139818,-0.10957 -0.245875,-0.24349 z m -0.832637,-0.83478 -0.484185,-0.52175 0.526873,0.47948 c 0.289779,0.2637 0.526873,0.49849 0.526873,0.52173 0,0.10625 -0.118894,0.006 -0.569561,-0.47946 z"
         id="path11" /><path
         style="display:inline;fill:#333333;fill-opacity:1;stroke-width:0.139814"
         d="m 44.017186,328.12997 v -8.10429 l 3.045505,3.02598 c 1.675028,1.66431 3.081261,3.026 3.124966,3.026 0.04371,0 1.470923,-1.37483 3.171594,-3.05516 l 3.092134,-3.05514 1.993475,1.98661 1.993474,1.98662 -3.082345,3.04999 c -1.69529,1.67747 -3.082346,3.08571 -3.082346,3.12943 0,0.0437 1.374382,1.43729 3.054179,3.09685 l 3.054178,3.01739 h -8.182407 -8.182407 z m 36.424475,5.08392 c 1.680725,-1.66023 3.055863,-3.05239 3.055863,-3.09366 0,-0.0412 -1.392897,-1.45542 -3.095328,-3.14252 l -3.095327,-3.06746 1.960696,-1.90763 c 1.078383,-1.04919 2.013451,-1.90762 2.077933,-1.90762 0.06448,0 1.475602,1.34624 3.135829,2.99163 1.660225,1.6454 3.069503,2.97484 3.131729,2.95429 0.06222,-0.0205 1.469194,-1.38243 3.126597,-3.02642 l 3.013462,-2.98906 4.2e-4,8.1044 4.22e-4,8.10441 -8.184091,-8e-4 -8.184093,-8.1e-4 z M 53.344257,300.1832 c -1.690178,-1.67501 -3.127591,-3.02748 -3.194253,-3.00548 -0.06666,0.0221 -1.473816,1.38105 -3.127011,3.02009 l -3.005807,2.98009 v -8.0981 -8.09809 h 8.177556 8.177558 l -3.049328,3.01259 c -1.67713,1.65695 -3.049329,3.04948 -3.049329,3.09455 0,0.0451 1.386147,1.45985 3.080328,3.14396 l 3.080325,3.06204 -2.008494,1.96691 -2.008495,1.96694 z m 25.990892,1.0547 -1.984632,-1.98002 3.073503,-3.04122 c 1.690428,-1.67268 3.073504,-3.07638 3.073504,-3.11931 0,-0.043 -1.375138,-1.43653 -3.055863,-3.09682 l -3.055862,-3.01871 8.184093,-7e-5 8.184091,-4e-5 v 8.10322 8.10322 l -3.091001,-3.05853 -3.091001,-3.05854 -3.126099,3.07343 -3.126099,3.0734 z"
         id="path10" /></g><g
       id="g5"
       inkscape:label="low"
       inkscape:export-filename="low.png"
       inkscape:export-xdpi="96"
       inkscape:export-ydpi="96"><rect
         style="fill:#cccccc;fill-opacity:1;stroke-width:0.536695;stroke-dasharray:none;stroke-opacity:0.410648"
         id="rect23-9"
         width="34.842949"
         height="34.842949"
         x="83.609993"
         y="280.44012"
         ry="1.7589955"
         inkscape:export-filename="low.png"
         inkscape:export-xdpi="96"
         inkscape:export-ydpi="96" /><path
         style="fill:#333333;fill-opacity:1;stroke-width:0.0834803"
         d="m 90.770351,285.27157 c 1.028014,0.98181 1.902289,1.77454 1.942838,1.76165 0.04056,-0.0129 0.896416,-0.8095 1.90194,-1.77021 l 1.828217,-1.74674 v 4.74661 4.74664 H 91.46952 86.495691 l 1.85469,-1.76581 c 1.020079,-0.9712 1.85469,-1.78743 1.85469,-1.81384 0,-0.0263 -0.843095,-0.85568 -1.873544,-1.8428 l -1.873544,-1.79479 1.221623,-1.15289 1.221628,-1.1529 z"
         id="path10-7"
         sodipodi:nodetypes="ssscccccssscccs"
         inkscape:export-filename="low.png"
         inkscape:export-xdpi="96"
         inkscape:export-ydpi="96" /><path
         style="fill:#333333;fill-opacity:1;stroke-width:0.0834803"
         d="m 90.809635,310.22234 c 1.028013,-0.9818 1.902289,-1.77453 1.942838,-1.76164 0.04056,0.0129 0.896416,0.8095 1.901939,1.77021 l 1.828218,1.74675 v -4.74663 -4.74663 h -4.973825 -4.97383 l 1.854691,1.76581 c 1.020078,0.9712 1.854689,1.78742 1.854689,1.81384 0,0.0263 -0.843095,0.85568 -1.873543,1.8428 l -1.873545,1.79479 1.221623,1.15289 1.221628,1.1529 z"
         id="path10-7-3"
         sodipodi:nodetypes="ssscccccssscccs" /><path
         style="fill:#333333;fill-opacity:1;stroke-width:0.0834803"
         d="m 112.01255,285.28503 c -1.02802,0.98181 -1.9023,1.77454 -1.94285,1.76165 -0.0405,-0.013 -0.89641,-0.80949 -1.90194,-1.77021 l -1.82821,-1.74674 v 4.74662 4.74663 h 4.97383 4.97383 l -1.8547,-1.76582 c -1.02007,-0.97119 -1.85468,-1.78742 -1.85468,-1.81383 0,-0.0263 0.84308,-0.85567 1.87354,-1.8428 l 1.87354,-1.79479 -1.22162,-1.15289 -1.22163,-1.1529 z"
         id="path10-7-32"
         sodipodi:nodetypes="ssscccccssscccs" /><path
         style="fill:#333333;fill-opacity:1;stroke-width:0.0834803"
         d="m 111.94485,310.46918 c -1.02801,-0.9818 -1.90229,-1.77453 -1.94284,-1.76164 -0.0405,0.0129 -0.89641,0.80948 -1.90194,1.7702 l -1.82821,1.74675 v -4.74663 -4.74663 h 4.97382 4.97383 l -1.85469,1.76581 c -1.02008,0.9712 -1.85469,1.78743 -1.85469,1.81384 0,0.0263 0.8431,0.85568 1.87354,1.84281 l 1.87355,1.79478 -1.22162,1.1529 -1.22164,1.15289 z"
         id="path10-7-3-0"
         sodipodi:nodetypes="ssscccccssscccs" /></g><g
       id="g4"
       inkscape:label="gravar"
       inkscape:export-filename="rec.png"
       inkscape:export-xdpi="96"
       inkscape:export-ydpi="96"><rect
         style="fill:#cccccc;fill-opacity:1;stroke-width:0.536695;stroke-dasharray:none;stroke-opacity:0.410648"
         id="rect23-2"
         width="34.842949"
         height="34.842949"
         x="125.47569"
         y="280.98978"
         ry="1.7589955"
         inkscape:export-filename="rec.png"
         inkscape:export-xdpi="96"
         inkscape:export-ydpi="96" /><circle
         style="fill:#333333;fill-opacity:1;stroke-width:0.619749;stroke-dasharray:none;stroke-opacity:0.410648"
         id="path23-3-7"
         cx="142.50334"
         cy="298.70697"
         r="13.939698" /></g><rect
       style="fill:#cccccc;fill-opacity:1;stroke-width:0.536695;stroke-dasharray:none;stroke-opacity:0.410648"
       id="rect23-2-5"
       width="34.842949"
       height="34.842949"
       x="250.89546"
       y="280.61926"
       ry="1.7589955"
       inkscape:export-filename="default.png"
       inkscape:export-xdpi="96"
       inkscape:export-ydpi="96" /><g
       id="g3"
       inkscape:label="gravando"
       style="fill:#cccccc;fill-opacity:1"
       transform="translate(-3.6661108,0.37925284)"
       inkscape:export-filename="recording.png"
       inkscape:export-xdpi="96"
       inkscape:export-ydpi="96"><rect
         style="fill:#cccccc;fill-opacity:1;stroke-width:0.536695;stroke-dasharray:none;stroke-opacity:0.410648"
         id="rect23-2-4"
         width="34.842949"
         height="34.842949"
         x="173.16707"
         y="280.2218"
         ry="1.7589955"
         inkscape:export-filename="recording.png"
         inkscape:export-xdpi="96"
         inkscape:export-ydpi="96" /><circle
         style="fill:#ff0000;fill-opacity:1;stroke-width:0.619749;stroke-dasharray:none;stroke-opacity:0.410648"
         id="path23-3"
         cx="190.94069"
         cy="297.94382"
         r="13.939698" /></g><g
       id="g6"><rect
         style="fill:#cccccc;fill-opacity:1;stroke-width:0.536695;stroke-dasharray:none;stroke-opacity:0.410648"
         id="rect23-2-4-7"
         width="34.842949"
         height="34.842949"
         x="211.15134"
         y="280.84103"
         ry="1.7589955"
         inkscape:export-filename="edit.png"
         inkscape:export-xdpi="96"
         inkscape:export-ydpi="96" /><path
         fill="#e1e0df"
         d="m 233.75066,286.47292 c -0.28396,0.0473 -0.54426,0.16565 -0.7809,0.30763 0.23664,-0.14198 0.52061,-0.2603 0.7809,-0.30763 z"
         id="path1-5"
         style="stroke-width:0.236634" /><path
         fill="#ffffff"
         d="m 218.18011,309.71042 8.51885,-1.89308 c 0.40228,-0.0946 0.78089,-0.30761 1.06485,-0.59157 l 12.51796,-12.51798 c 0.85189,-0.85187 0.85189,-2.22436 0,-3.07624 l -4.5907,-4.56704 c -0.85188,-0.85188 -2.22437,-0.85188 -3.07626,0 l -12.51795,12.51796 c -0.28396,0.28396 -0.49694,0.66258 -0.59158,1.06486 l -1.84576,8.5425 c -0.11838,0.30763 0.21297,0.63892 0.52059,0.52059"
         id="path2"
         style="stroke-width:0.236634;fill:#ececec" /><path
         fill="#ffffff"
         d="m 238.76732,296.26959 1.53812,-1.53812 c 0.85188,-0.85188 0.85188,-2.22436 0,-3.07624 l -4.59071,-4.61438 c -0.85188,-0.85189 -2.22436,-0.85189 -3.07625,0 l -1.53811,1.53812 7.66695,7.69062"
         id="path3"
         style="stroke-width:0.236634;fill:#ececec" /><path
         fill="#f8b0b4"
         d="m 223.97766,303.39228 -3.83347,-3.83347 10.95618,-10.95618 7.66695,7.66696 -10.95618,10.95618 -3.83348,-3.83349"
         id="path4"
         style="fill:#1a1a1a;stroke-width:0.236634;fill-opacity:1" /><path
         fill="#f37c7e"
         d="m 223.97766,303.39228 10.95618,-10.95616 3.83348,3.83347 -10.95618,10.95618 -3.83348,-3.83349"
         id="path5"
         style="fill:#333333;stroke-width:0.236634" /><path
         fill="#e7e7e7"
         d="m 226.27302,305.7113 v 0 c -0.30763,0.30764 -0.66258,0.54427 -1.11218,0.61525 l -6.19983,2.08239 -1.30149,0.75723 v 0.0473 c -0.0946,0.26029 0.11825,0.54426 0.37861,0.54426 0,0 0,0 0.0237,0 0.0473,0 0.071,0 0.11826,-0.0236 v 0 l 8.51884,-1.89307 c 0.40228,-0.0946 0.78089,-0.30763 1.06485,-0.59159 l 0.0237,-0.0236 -1.51445,-1.51446 m 10.97984,-10.97984 v 0 l 1.49079,1.51447 v 0 l -1.49079,-1.51447 m 1.51446,-4.5907 c 0.85188,0.85188 0.85188,2.22437 0,3.07624 l -1.51446,1.51446 1.49079,1.51447 0.0237,0.0236 1.53812,-1.53813 c 0.42595,-0.42594 0.63892,-0.9702 0.63892,-1.51446 0,-0.54426 -0.21297,-1.11218 -0.63892,-1.53812 l -1.53812,-1.53813"
         id="path6"
         style="stroke-width:0.236634;fill:#b3b3b3" /><path
         fill="#dc7173"
         d="m 237.22919,294.73147 -10.95617,10.97983 1.53812,1.51447 10.95618,-10.95618 -0.0237,-0.0236 -1.51446,-1.51446"
         id="path7"
         style="fill:#4d4d4d;stroke-width:0.236634" /><path
         fill="#a8b2c6"
         d="m 217.65952,309.18983 0.66259,-3.64418 3.54951,3.54953 -3.69151,0.63891 c -0.30762,0.0946 -0.63891,-0.23663 -0.52059,-0.54426 z"
         id="path8"
         style="fill:#4d4d4d;stroke-width:0.236634" /><path
         fill="#e1e0df"
         d="m 240.5894,294.40017 c 0.16564,-0.23662 0.2603,-0.49693 0.33129,-0.78089 -0.071,0.26031 -0.16565,0.54427 -0.33129,0.78089 z"
         id="path9-3"
         style="stroke-width:0.236634" /><path
         fill="none"
         d="m 231.10037,288.60263 7.66695,7.66696"
         id="path10-5"
         style="stroke-width:0.236634" /></g></g></svg>
